<svg viewBox="84 -227 993 954" xmlns="http://www.w3.org/2000/svg"><path d="m0 0-120.438-69.534-120.437 69.534v139.07l120.437 69.534 120.438-69.534z" fill="#f5f5f5" transform="matrix(1.333333 0 0 -1.333333 410.5832661875 342.7133518216)"/><path d="m0 0-120.438-69.534-120.437 69.534v139.07l120.437 69.534 120.438-69.534z" fill="none" stroke="#231f20" stroke-linejoin="round" stroke-miterlimit="10" stroke-width="8" transform="matrix(1.333333 0 0 -1.333333 410.5832661875 342.7133518216)"/><path d="m0 0-95.617-55.204-95.617 55.204v110.41l95.617 55.205 95.617-55.205z" fill="#535456" transform="matrix(1.333333 0 0 -1.333333 377.4895411276 323.6065565983)"/><path d="m0 0-120.438-69.534-120.437 69.534v139.07l120.437 69.534 120.438-69.534z" fill="#f5f5f5" transform="matrix(1.333333 0 0 -1.333333 741.4595861875 342.7472568216)"/><path d="m0 0-120.438-69.534-120.437 69.534v139.07l120.437 69.534 120.438-69.534z" fill="none" stroke="#231f20" stroke-linejoin="round" stroke-miterlimit="10" stroke-width="8" transform="matrix(1.333333 0 0 -1.333333 741.4595861875 342.7472568216)"/><path d="m0 0-95.617-55.204-95.618 55.204v110.41l95.618 55.205 95.617-55.205z" fill="#c71e25" transform="matrix(1.333333 0 0 -1.333333 708.3658611276 323.6404615983)"/><path d="m0 0-120.438-69.534-120.437 69.534v139.07l120.437 69.534 120.438-69.534z" fill="#f5f5f5" transform="matrix(1.333333 0 0 -1.333333 576.7459931875 56.9625278216)"/><path d="m0 0-120.438-69.534-120.437 69.534v139.07l120.437 69.534 120.438-69.534z" fill="none" stroke="#231f20" stroke-linejoin="round" stroke-miterlimit="10" stroke-width="8" transform="matrix(1.333333 0 0 -1.333333 576.7459931875 56.9625278216)"/><path d="m0 0-95.617-55.204-95.618 55.204v110.41l95.618 55.205 95.617-55.205z" fill="#c71e25" transform="matrix(1.333333 0 0 -1.333333 543.6522681276 37.8557325983)"/><path d="m0 0-120.438-69.534-120.437 69.534v139.07l120.437 69.534 120.438-69.534z" fill="#f5f5f5" transform="matrix(1.333333 0 0 -1.333333 907.0714021875 56.8267248216)"/><path d="m0 0-120.438-69.534-120.437 69.534v139.07l120.437 69.534 120.438-69.534z" fill="none" stroke="#231f20" stroke-linejoin="round" stroke-miterlimit="10" stroke-width="8" transform="matrix(1.333333 0 0 -1.333333 907.0714021875 56.8267248216)"/><path d="m0 0-95.617-55.204-95.618 55.204v110.41l95.618 55.205 95.617-55.205z" fill="#c71e25" transform="matrix(1.333333 0 0 -1.333333 873.9776771276 37.7199295983)"/><path d="m0 0-120.438-69.534-120.437 69.534v139.07l120.437 69.534 120.438-69.534z" fill="#f5f5f5" transform="matrix(1.333333 0 0 -1.333333 1071.2680571875 343.6793858216)"/><path d="m0 0-120.438-69.534-120.437 69.534v139.07l120.437 69.534 120.438-69.534z" fill="none" stroke="#231f20" stroke-linejoin="round" stroke-miterlimit="10" stroke-width="8" transform="matrix(1.333333 0 0 -1.333333 1071.2680571875 343.6793858216)"/><path d="m0 0-95.617-55.204-95.618 55.204v110.41l95.618 55.205 95.617-55.205z" fill="#c71e25" transform="matrix(1.333333 0 0 -1.333333 1038.1743321276 324.5725905983)"/><path d="m0 0-120.438-69.534-120.437 69.534v139.07l120.437 69.534 120.438-69.534z" fill="#f5f5f5" transform="matrix(1.333333 0 0 -1.333333 576.0384431875 629.0319858216)"/><path d="m0 0-120.438-69.534-120.437 69.534v139.07l120.437 69.534 120.438-69.534z" fill="none" stroke="#231f20" stroke-linejoin="round" stroke-miterlimit="10" stroke-width="8" transform="matrix(1.333333 0 0 -1.333333 576.0384431875 629.0319858216)"/><path d="m0 0-95.617-55.204-95.618 55.204v110.41l95.618 55.205 95.617-55.205z" fill="#c71e25" transform="matrix(1.333333 0 0 -1.333333 542.9447181276 609.9251905983)"/><path d="m0 0-120.438-69.534-120.437 69.534v139.07l120.437 69.534 120.438-69.534z" fill="#f5f5f5" transform="matrix(1.333333 0 0 -1.333333 905.8469151875 629.9641148216)"/><path d="m0 0-120.438-69.534-120.437 69.534v139.07l120.437 69.534 120.438-69.534z" fill="none" stroke="#231f20" stroke-linejoin="round" stroke-miterlimit="10" stroke-width="8" transform="matrix(1.333333 0 0 -1.333333 905.8469151875 629.9641148216)"/><path d="m0 0-95.617-55.204-95.618 55.204v110.41l95.618 55.205 95.617-55.205z" fill="#c71e25" transform="matrix(1.333333 0 0 -1.333333 872.7531901276 610.8573195983)"/><path d="m0 0-120.438-69.534-120.437 69.534v139.07l120.437 69.534 120.438-69.534z" fill="#f5f5f5" transform="matrix(1.333333 0 0 -1.333333 740.0105201875 340.7811928216)"/><path d="m0 0-120.438-69.534-120.437 69.534v139.07l120.437 69.534 120.438-69.534z" fill="none" stroke="#231f20" stroke-linejoin="round" stroke-miterlimit="10" stroke-width="8" transform="matrix(1.333333 0 0 -1.333333 740.0105201875 340.7811928216)"/><path d="m0 0-95.617-55.204-95.617 55.204v110.41l95.617 55.205 95.617-55.205z" fill="#535456" transform="matrix(1.333333 0 0 -1.333333 706.9167951276 321.6743975983)"/><path d="m0 0-120.438-69.534-120.437 69.534v139.07l120.437 69.534 120.438-69.534z" fill="#f5f5f5" transform="matrix(1.333333 0 0 -1.333333 414.2439521875 342.7811618216)"/><path d="m0 0-120.438-69.534-120.437 69.534v139.07l120.437 69.534 120.438-69.534z" fill="none" stroke="#231f20" stroke-linejoin="round" stroke-miterlimit="10" stroke-width="8" transform="matrix(1.333333 0 0 -1.333333 414.2439521875 342.7811618216)"/><path d="m0 0-95.617-55.204-95.618 55.204v110.41l95.618 55.205 95.617-55.205z" fill="#c71e25" transform="matrix(1.333333 0 0 -1.333333 381.1502271276 323.6743665983)"/><path d="m0 0-120.438-69.534-120.437 69.534v139.07l120.437 69.534 120.438-69.534z" fill="#f5f5f5" transform="matrix(1.333333 0 0 -1.333333 744.8408421875 342.7133218216)"/><path d="m0 0-120.438-69.534-120.437 69.534v139.07l120.437 69.534 120.438-69.534z" fill="none" stroke="#231f20" stroke-linejoin="round" stroke-miterlimit="10" stroke-width="8" transform="matrix(1.333333 0 0 -1.333333 744.8408421875 342.7133218216)"/><path d="m0 0-95.617-55.204-95.618 55.204v110.41l95.618 55.205 95.617-55.205z" fill="#c71e25" transform="matrix(1.333333 0 0 -1.333333 711.7471171276 323.6065265983)"/></svg>