<svg height="771.59332" viewBox="0 0 771.59534 771.59332" width="771.59534" xmlns="http://www.w3.org/2000/svg" xmlns:xlink="http://www.w3.org/1999/xlink"><clipPath id="a"><path d="m0 600h600v-600h-600z"/></clipPath><clipPath id="b"><path d="m286.083 583.583-269.666-269.667c-7.687-7.686-7.687-20.146 0-27.833l269.666-269.666c7.687-7.686 20.147-7.686 27.834 0l269.666 269.666c7.686 7.687 7.686 20.147 0 27.833l-269.666 269.667c-3.843 3.843-8.88 5.765-13.917 5.765-5.037 0-10.074-1.922-13.917-5.765"/></clipPath><clipPath id="c"><path d="m0 600h600v-600h-600z"/></clipPath><g transform="matrix(1.3333333 0 0 -1.3333333 -14.202333 785.79691)"><g clip-path="url(#a)"><path d="m0 0c-3.922 0-7.608 1.527-10.382 4.3l-269.666 269.666c-2.772 2.773-4.3 6.46-4.3 10.382 0 3.921 1.528 7.608 4.3 10.381l269.666 269.667c2.774 2.772 6.46 4.3 10.382 4.3s7.608-1.528 10.382-4.3l269.666-269.667c2.772-2.773 4.3-6.46 4.3-10.381 0-3.922-1.528-7.609-4.3-10.382l-269.666-269.666c-2.774-2.773-6.46-4.3-10.382-4.3" fill="#62747a" transform="translate(300 15.6523)"/><path d="m0 0c-5.037 0-10.073-1.921-13.917-5.764l-269.666-269.667c-7.687-7.686-7.687-20.147 0-27.834l269.666-269.666c3.844-3.842 8.88-5.764 13.917-5.764s10.073 1.922 13.917 5.764l269.666 269.666c7.687 7.687 7.687 20.148 0 27.834l-269.666 269.667c-3.844 3.843-8.88 5.764-13.917 5.764m0-10c2.586 0 5.017-1.007 6.846-2.835l269.667-269.667c3.774-3.775 3.774-9.917 0-13.691l-269.667-269.667c-1.829-1.828-4.26-2.835-6.846-2.835s-5.017 1.007-6.846 2.836l-269.667 269.666c-3.774 3.774-3.774 9.916 0 13.691l269.667 269.667c1.829 1.828 4.26 2.835 6.846 2.835" fill="#fff" transform="translate(300 589.3477)"/></g><g clip-path="url(#b)"><path d="m0 0s-27.653 34.079-28.102 36.065c-.447 1.987 3.322 23.517 3.05 39.527-.271 16.01-11.265 44.429-9.739 50.617s13.731 60.188 13.335 63.334c-.397 3.146-12.624 11.554-25.465 4.17-12.84-7.383-17.067-32.13-19.477-38.1-2.411-5.97-4.513-12.487-11.621-16.541-11.131-6.351-15.944 2.351-24.199 11.655-4.014 4.523-29.133 66.554-34.184 75.537-5.053 8.983-11.087 32.639-28.886 25.408-18.841-7.654 5.282-53.87 7.619-59.604 2.337-5.735 14.246-35.399 15.309-39.647 1.062-4.248-1.478-6.153-4.399-7.543-2.922-1.39-4.01-4.685-13.93 7.374-9.921 12.06-33.678 38.831-37.169 42.739-3.491 3.909-23.364 26.049-29.718 27.851-6.355 1.802-22.892-6.312-18.379-19.382 4.514-13.07 29.06-32.891 40.089-46.161 11.028-13.271 35.658-34.034 32.208-41.47-3.197-6.892-18.797 4.815-33.312 13.345-14.513 8.531-44.183 29.228-48.27 29.767s-16.555-2.482-16.238-15.455c.318-12.972 27.551-26.536 34.854-31.15 7.302-4.614 45.083-27.384 42.276-35.716-1.75-5.195-21.979 2.139-33.92 6.959-11.94 4.82-40.934 15.528-44.974 6.628-5.648-12.439-2.736-23.233 29.544-34.945 32.279-11.713 38.744-16.427 45.495-21.374 6.751-4.948 27.178-32.689 52.373-42.639 15.809-6.244 34.422-12.959 45.403-11.212 9.374-3.769 29.104-35.2 29.104-35.2s22.841 5.941 40.275 19.848c17.435 13.905 31.048 35.315 31.048 35.315" fill="#fff" transform="translate(470.7783 154.5684)"/></g><g clip-path="url(#c)" fill="#fff"><path d="m0 0-27.074-68.728c-1.584-4.022-3.811-3.433-3.198.847l10.469 73.122c.42 2.929 1.987 5.594 3.114 5.296l16.604-4.394c1.127-.299 1.169-3.391.085-6.143" transform="translate(410.08 429.7622)"/><path d="m0 0 14.682-36.225c.859-2.12-.512-2.938-1.97-1.175l-24.907 30.124c-.998 1.206-1.306 2.848-.612 3.262l10.226 6.102c.694.414 1.993-.637 2.581-2.088" transform="translate(250.0166 447.9976)"/><path d="m0 0 36.477-34.289c2.134-2.007 1.187-3.292-1.361-1.846l-43.544 24.704c-1.744.99-3.025 2.652-2.546 3.302l7.067 9.585c.479.65 2.445-.082 3.907-1.456" transform="translate(162.1181 381.5654)"/><path d="m0 0 33.015-13.757c1.931-.806 1.633-1.829-.429-1.472l-35.239 6.118c-1.411.245-2.689 1.018-2.537 1.537l2.224 7.639c.151.519 1.644.486 2.966-.065" transform="translate(136.4892 279.627)"/><path d="m0 0 37.143 6.404c2.173.375 2.637-1.034.667-2.024l-33.681-16.919c-1.349-.678-2.954-.641-3.189.072l-3.462 10.515c-.235.713 1.034 1.696 2.522 1.952" transform="translate(183.6953 187.4365)"/><path d="m0 0-9.429-31.857c-.551-1.865-1.954-1.684-2.014.26l-1.031 33.207c-.041 1.33.636 2.585 1.346 2.494l10.46-1.351c.709-.091 1.046-1.477.668-2.753" transform="translate(334.3691 463.0659)"/></g></g></svg>