<svg height="746.66663" viewBox="0 0 746.66663 746.66663" width="746.66663" xmlns="http://www.w3.org/2000/svg" xmlns:xlink="http://www.w3.org/1999/xlink"><clipPath id="a"><path d="m0 600h600v-600h-600z"/></clipPath><g clip-path="url(#a)" transform="matrix(1.3333333 0 0 -1.3333333 -26.666666 773.33331)"><path d="m0 0c-72.653 0-140.959 28.293-192.333 79.667s-79.667 119.68-79.667 192.333c0 72.654 28.293 140.959 79.667 192.333s119.68 79.667 192.333 79.667 140.959-28.293 192.333-79.667 79.667-119.679 79.667-192.333c0-72.653-28.293-140.959-79.667-192.333s-119.68-79.667-192.333-79.667" fill="#e2421f" transform="translate(300 28)"/><g fill="#fff"><path d="m0 0c-37.793 0-74.464-7.405-108.993-22.01-33.345-14.104-63.287-34.291-88.997-60-25.709-25.71-45.897-55.652-59.999-88.996-14.606-34.531-22.011-71.201-22.011-108.994s7.405-74.464 22.011-108.993c14.102-33.345 34.29-63.287 59.999-88.997 25.71-25.709 55.652-45.897 88.997-59.999 34.529-14.606 71.2-22.011 108.993-22.011s74.464 7.405 108.993 22.011c33.345 14.102 63.287 34.29 88.997 59.999 25.709 25.71 45.897 55.652 59.999 88.997 14.606 34.529 22.011 71.2 22.011 108.993s-7.405 74.463-22.011 108.994c-14.102 33.344-34.29 63.286-59.999 88.996-25.71 25.709-55.652 45.896-88.997 60-34.529 14.605-71.2 22.01-108.993 22.01m0-16c145.803 0 264-118.197 264-264s-118.197-264-264-264-264 118.197-264 264 118.197 264 264 264" transform="translate(300 580)"/><path d="m0 0c-42.5 34.5-58.5 99.5-47 143.5-25.5-2.5-66.272-25.288-83.5-89.5-22-82 43.996-140.5 0-170.5-51.444-35.079-86.5 26-82 82.5-30-23.5-48.447-119.579-9.5-178 28-42 63.811-66.136 109.516-71.391-14.745 10.442-15.741 29.913-10.516 44.891 7.5 21.5 32.239 31.107 55.5 49 26 20 37 40 38.5 49.5 13-19.5 28.581-48.317 15.5-91-6.013-19.62-16.979-38.34-34.339-49.45 54.976 14.201 119.664 61.891 119.839 145.95.156 75-37.865 106.791-72 134.5" transform="translate(386.0616 369.9458)"/></g></g></svg>