<svg height="258.30942" viewBox="0 0 337.48593 258.30942" width="337.48593" xmlns="http://www.w3.org/2000/svg" xmlns:xlink="http://www.w3.org/1999/xlink"><clipPath id="a"><path d="m0 300h300v-300h-300z"/></clipPath><g clip-path="url(#a)" fill="#fff" transform="matrix(1.3333333 0 0 -1.3333333 -31.257315 329.15501)"><path d="m0 0c15.666 10.035 60.229 42.364 67.632 89.506.236 1.503-1.558 2.471-2.679 1.442-10.631-9.756-46.44-39.191-96.998-44.916-.769-.087-1.37-.701-1.427-1.473-1.477-20.171-4.421-48.084-17.82-84.101l-7.444 4.298-7.721-4.457c-13.449 36.094-16.4 64.058-17.88 84.26-.057.772-.657 1.386-1.427 1.473-50.557 5.725-86.367 35.16-96.998 44.916-1.121 1.029-2.915.061-2.678-1.442 7.402-47.142 51.965-79.471 67.631-89.506 1.428-.915.661-3.135-1.026-2.958-7.886.823-22.231 3.521-38.813 12.258-1.258.662-2.692-.492-2.312-1.863 8.188-29.535 40.438-45.5 52.447-50.518 1.432-.599 1.268-2.68-.241-3.045-6.207-1.504-17.415-3.648-27.271-2.503-1.448.169-2.348-1.481-1.44-2.62 8.387-10.508 27.934-15.995 42.29-17.627.068-.008.377-.088.881-.226l5.496-16.477 29.062-16.778 29.06 16.778 6.042 16.703c14.357 1.632 33.904 7.119 42.29 17.627.908 1.139.008 2.789-1.439 2.62-9.858-1.145-21.065.999-27.272 2.503-1.508.365-1.673 2.446-.241 3.045 12.01 5.018 44.26 20.983 52.447 50.518.38 1.371-1.053 2.525-2.311 1.863-16.582-8.737-30.928-11.435-38.814-12.258-1.686-.177-2.454 2.043-1.026 2.958" fill="#fff" transform="translate(208.9043 155.4912)"/></g></svg>