<svg height="746.66663" viewBox="0 0 746.66663 746.66663" width="746.66663" xmlns="http://www.w3.org/2000/svg" xmlns:xlink="http://www.w3.org/1999/xlink"><clipPath id="a"><path d="m0 600h600v-600h-600z"/></clipPath><g clip-path="url(#a)" transform="matrix(1.3333333 0 0 -1.3333333 -26.667066 773.33331)"><path d="m0 0c-72.654 0-140.959 28.293-192.333 79.667s-79.667 119.68-79.667 192.333c0 72.654 28.293 140.959 79.667 192.333s119.679 79.667 192.333 79.667c72.653 0 140.959-28.293 192.333-79.667s79.667-119.679 79.667-192.333c0-72.653-28.293-140.959-79.667-192.333s-119.68-79.667-192.333-79.667" fill="#56c8ef" transform="translate(300.0003 28)"/><g fill="#fff"><path d="m0 0c-37.793 0-74.464-7.405-108.994-22.01-33.344-14.104-63.286-34.291-88.996-60-25.709-25.71-45.897-55.652-60-88.996-14.605-34.531-22.01-71.201-22.01-108.994s7.405-74.464 22.01-108.993c14.103-33.345 34.291-63.287 60-88.997 25.71-25.709 55.652-45.897 88.996-59.999 34.53-14.606 71.201-22.011 108.994-22.011 37.792 0 74.463 7.405 108.993 22.011 33.344 14.102 63.287 34.29 88.996 59.999 25.71 25.71 45.897 55.652 60 88.997 14.606 34.529 22.011 71.2 22.011 108.993s-7.405 74.463-22.011 108.994c-14.103 33.344-34.29 63.286-60 88.996-25.709 25.709-55.652 45.896-88.996 60-34.53 14.605-71.201 22.01-108.993 22.01m0-16c145.803 0 264-118.197 264-264s-118.197-264-264-264c-145.804 0-264 118.197-264 264s118.196 264 264 264" transform="translate(300.0003 580)"/><path d="m0 0-37.729 21.782v43.567l37.729 21.783 37.729-21.783v-43.567zm182.664-2.602-38.139-27.986-30.576 18.524 49.5 34.673c3.166 2.218 3.935 6.583 1.717 9.75-2.219 3.165-6.582 3.936-9.75 1.717l-54.553-38.213-49.134 29.767v35.871l49.135 29.768 54.552-38.214c1.223-.856 2.623-1.267 4.011-1.267 2.206 0 4.377 1.04 5.739 2.984 2.218 3.166 1.449 7.532-1.717 9.749l-49.499 34.675 30.575 18.524 38.139-27.987c1.248-.916 2.698-1.357 4.136-1.357 2.153 0 4.278.99 5.649 2.859 2.287 3.118 1.614 7.498-1.502 9.786l-33.459 24.552 29.336 17.773c3.348 1.932 4.495 6.214 2.563 9.562-1.933 3.348-6.213 4.496-9.563 2.562l-30.065-16.465-4.529 41.199c-.421 3.844-3.881 6.621-7.722 6.193-3.843-.422-6.616-3.879-6.194-7.722l5.161-46.945-31.334-17.159-5.268 60.069c-.338 3.85-3.711 6.71-7.585 6.361-3.851-.337-6.699-3.733-6.362-7.584l5.803-66.19-50.569-27.693-30.678 17.712-1.27 57.719 60.278 28.095c3.504 1.632 5.021 5.797 3.388 9.301-1.633 3.503-5.796 5.022-9.302 3.388l-54.701-25.495-.787 35.725 43.262 19.017c3.54 1.556 5.147 5.686 3.591 9.225-1.556 3.538-5.686 5.148-9.224 3.591l-37.962-16.687-.755 34.279c0 3.867-3.134 7-7 7s-7-3.133-7-7l-.746-34.282-37.972 16.69c-3.538 1.557-7.67-.053-9.224-3.591-1.556-3.539.051-7.669 3.591-9.225l43.276-19.022-.778-35.73-54.724 25.505c-3.506 1.633-7.668.116-9.302-3.388-1.633-3.504-.116-7.669 3.388-9.301l60.305-28.107-1.253-57.683-30.711-17.73-50.579 27.694 5.802 66.183c.337 3.851-2.51 7.247-6.362 7.584-3.858.347-7.248-2.511-7.585-6.361l-5.266-60.063-31.334 17.157 5.159 46.941c.422 3.843-2.351 7.301-6.194 7.722-3.83.425-7.3-2.349-7.722-6.193l-4.528-41.196-30.065 16.463c-3.348 1.932-7.629.785-9.563-2.563-1.932-3.347-.785-7.629 2.563-9.561l29.336-17.773-33.46-24.553c-3.116-2.288-3.789-6.668-1.502-9.785 1.371-1.869 3.496-2.859 5.649-2.859 1.438 0 2.888.441 4.136 1.356l38.14 27.987 30.575-18.524-49.5-34.675c-3.166-2.217-3.935-6.583-1.717-9.749 1.362-1.944 3.533-2.984 5.739-2.984 1.387 0 2.788.411 4.011 1.267l54.553 38.214 49.135-29.769v-35.498l-49.316-30.013-54.373 38.087c-3.164 2.219-7.529 1.449-9.749-1.718-2.218-3.166-1.449-7.531 1.718-9.749l49.346-34.566-30.509-18.567-38.053 27.922c-3.118 2.289-7.499 1.614-9.785-1.502-2.287-3.117-1.614-7.498 1.502-9.785l33.399-24.508-29.275-17.817c-3.348-1.933-4.495-6.215-2.563-9.562 1.297-2.246 3.65-3.501 6.07-3.501 1.187 0 2.39.302 3.493.938l30.057 16.537 4.536-41.27c.393-3.583 3.425-6.237 6.949-6.237.256 0 .513.015.773.043 3.843.422 6.616 3.88 6.194 7.723l-5.17 47.048 31.329 17.236 5.282-60.249c.319-3.643 3.376-6.388 6.966-6.388.204 0 .411.008.619.026 3.852.338 6.699 3.733 6.362 7.585l-5.821 66.402 50.276 27.66 30.91-17.845 1.299-57.635-60.228-28.071c-3.504-1.633-5.021-5.798-3.388-9.302 1.188-2.548 3.712-4.045 6.35-4.045.989 0 1.996.212 2.952.657l54.659 25.476.805-35.717-43.238-19.006c-3.54-1.556-5.147-5.685-3.591-9.225 1.153-2.623 3.719-4.185 6.412-4.185.94 0 1.896.191 2.812.594l37.946 16.679.772-34.271c0-3.866 3.134-7 7-7s7 3.134 7 7l.729 34.291 37.988-16.699c.916-.404 1.872-.594 2.812-.594 2.693 0 5.26 1.562 6.412 4.185 1.556 3.54-.051 7.669-3.59 9.225l-43.301 19.034.759 35.739 54.767-25.526c.957-.446 1.962-.657 2.952-.657 2.637 0 5.162 1.497 6.35 4.045 1.633 3.504.116 7.669-3.388 9.302l-60.356 28.13 1.22 57.456 30.797 17.781 50.578-27.695-5.803-66.183c-.337-3.852 2.511-7.247 6.362-7.585.208-.018.414-.026.619-.026 3.59 0 6.646 2.745 6.966 6.388l5.267 60.064 31.333-17.158-5.159-46.941c-.422-3.843 2.351-7.301 6.194-7.723.26-.028.517-.043.773-.043 3.523 0 6.556 2.654 6.949 6.237l4.528 41.197 30.066-16.464c1.103-.636 2.306-.938 3.493-.938 2.419 0 4.773 1.256 6.07 3.501 1.932 3.347.785 7.629-2.563 9.562l-29.336 17.773 33.459 24.552c3.116 2.287 3.789 6.668 1.502 9.785-2.286 3.117-6.667 3.791-9.785 1.502" transform="translate(300.0003 256.3574)"/></g></g></svg>