<svg height="771.59332" viewBox="0 0 771.59534 771.59332" width="771.59534" xmlns="http://www.w3.org/2000/svg" xmlns:xlink="http://www.w3.org/1999/xlink"><clipPath id="a"><path d="m0 600h600v-600h-600z"/></clipPath><g clip-path="url(#a)" transform="matrix(1.3333333 0 0 -1.3333333 -14.202333 785.79691)"><path d="m0 0c-3.922 0-7.608 1.527-10.382 4.3l-269.666 269.666c-2.772 2.773-4.3 6.46-4.3 10.382 0 3.921 1.528 7.608 4.3 10.381l269.666 269.667c2.774 2.772 6.46 4.3 10.382 4.3s7.608-1.528 10.382-4.3l269.666-269.667c2.772-2.773 4.3-6.46 4.3-10.381 0-3.922-1.528-7.609-4.3-10.382l-269.666-269.666c-2.774-2.773-6.46-4.3-10.382-4.3" fill="#99282d" transform="translate(300 15.6523)"/><path d="m0 0c-5.037 0-10.073-1.921-13.917-5.764l-269.666-269.667c-7.687-7.686-7.687-20.147 0-27.834l269.666-269.666c3.844-3.842 8.88-5.764 13.917-5.764s10.073 1.922 13.917 5.764l269.666 269.666c7.687 7.687 7.687 20.148 0 27.834l-269.666 269.667c-3.844 3.843-8.88 5.764-13.917 5.764m0-10c2.586 0 5.017-1.007 6.846-2.835l269.667-269.667c3.774-3.775 3.774-9.917 0-13.691l-269.667-269.666c-1.829-1.829-4.26-2.836-6.846-2.836s-5.017 1.007-6.846 2.836l-269.667 269.666c-3.774 3.774-3.774 9.916 0 13.691l269.667 269.667c1.829 1.828 4.26 2.835 6.846 2.835" fill="#fff" transform="translate(300 589.3477)"/><path d="m0 0c44.953-43.753 99.49-37.758 99.49-37.758s0 2.994 1.795 8.39c11.39 2.399 38.959.599 41.954.599 3 0 8.99-9.589 10.789-12.585 7.79 0 53.343 13.185 60.534 22.175 3.594 11.39-7.791 78.512-14.385 109.08 32.363 86.902 16.779 112.071 16.779 112.071-32.959 10.79-52.138 6.595-71.317-.6-19.179-7.189-41.354-2.995-43.154-4.789-.743-.745 1.612-16.919 4.621-36.375.105-.66.205-1.32.308-1.984.491-3.144.982-6.352 1.482-9.59.105-.659.209-1.319.318-1.983.496-3.144.992-6.302 1.482-9.421.09-.595.184-1.19.279-1.78.501-3.263 1.006-6.476 1.482-9.59.114-.734.223-1.463.337-2.187.496-3.282.977-6.441 1.418-9.416.14-.946.278-1.874.407-2.781.516-3.56.957-6.798 1.314-9.59.049-.407.104-.798.149-1.185.5-3.957.788-6.887.788-8.404 0-.318-.019-.655-.064-1.012-.065-.61-.194-1.274-.377-1.983-.7-2.654-2.122-5.946-4.007-9.59-.337-.649-.689-1.314-1.056-1.983-8.053-14.826-22.328-34.084-24.46-38.775-38.358.6-57.538-8.99-57.538-8.99l-17.379 3.599s-11.389-7.793-11.989-33.563" fill="#fff" transform="translate(203.3125 205.6602)"/><path d="m0 0-113.107 158.178" fill="none" stroke="#fff" stroke-linecap="round" stroke-miterlimit="10" stroke-width="10" transform="translate(286.999 229.5264)"/><g fill="#fff"><path d="m0 0-7.902-31.237-40.633 56.605 7.903 31.237z" transform="translate(243.4258 360.6089)"/><path d="m0 0-32.543 1.495 41.908-55.666 32.543-1.496z" transform="translate(168.0146 367.8188)"/></g></g></svg>