<svg height="251.83788mm" viewBox="0 0 261.90472 251.83788" width="261.90472mm" xmlns="http://www.w3.org/2000/svg"><path d="m0 0-120.438-69.534-120.437 69.534v139.07l120.437 69.534 120.438-69.534z" fill="none" stroke="#231f20" stroke-linejoin="round" stroke-miterlimit="10" stroke-width="8" transform="matrix(.35277768514 0 0 -.35277768514 86.38643570834 75.21264072367)"/><path d="m0 0-95.617-55.204-95.617 55.204v110.41l95.617 55.205 95.617-55.205z" fill="#535456" transform="matrix(.35277768514 0 0 -.35277768514 77.63038772989 70.15730121786)"/><path d="m0 0-120.438-69.534-120.437 69.534v139.07l120.437 69.534 120.438-69.534z" fill="#f5f5f5" transform="matrix(.35277768514 0 0 -.35277768514 130.38462158016 150.39994855822)"/><path d="m0 0-120.438-69.534-120.437 69.534v139.07l120.437 69.534 120.438-69.534z" fill="none" stroke="#231f20" stroke-linejoin="round" stroke-miterlimit="10" stroke-width="8" transform="matrix(.35277768514 0 0 -.35277768514 130.38462158016 150.39994855822)"/><path d="m0 0-95.617-55.204-95.618 55.204v110.41l95.618 55.205 95.617-55.205z" fill="#c71e25" transform="matrix(.35277768514 0 0 -.35277768514 121.62857360171 145.34460905242)"/><path d="m0 0-120.438-69.534-120.437 69.534v139.07l120.437 69.534 120.438-69.534z" fill="#f5f5f5" transform="matrix(.35277768514 0 0 -.35277768514 217.92898808141 150.18924497755)"/><path d="m0 0-120.438-69.534-120.437 69.534v139.07l120.437 69.534 120.438-69.534z" fill="none" stroke="#231f20" stroke-linejoin="round" stroke-miterlimit="10" stroke-width="8" transform="matrix(.35277768514 0 0 -.35277768514 217.92898808141 150.18924497755)"/><path d="m0 0-95.617-55.204-95.618 55.204v110.41l95.618 55.205 95.617-55.205z" fill="#c71e25" transform="matrix(.35277768514 0 0 -.35277768514 209.17294010295 145.13390547174)"/><path d="m0 0-120.438-69.534-120.437 69.534v139.07l120.437 69.534 120.438-69.534z" fill="#f5f5f5" transform="matrix(.35277768514 0 0 -.35277768514 172.94926106475 75.21263956797)"/><path d="m0 0-120.438-69.534-120.437 69.534v139.07l120.437 69.534 120.438-69.534z" fill="none" stroke="#231f20" stroke-linejoin="round" stroke-miterlimit="10" stroke-width="8" transform="matrix(.35277768514 0 0 -.35277768514 172.94926106475 75.21263956797)"/><path d="m0 0-95.617-55.204-95.618 55.204v110.41l95.618 55.205 95.617-55.205z" fill="#c71e25" transform="matrix(.35277768514 0 0 -.35277768514 164.19321308629 70.15730006216)"/><path d="m0 0-120.438-69.534-120.437 69.534v139.07l120.437 69.534 120.438-69.534z" fill="#f5f5f5" transform="matrix(.35277768514 0 0 -.35277768514 260.49362756599 75.00192540395)"/><path d="m0 0-120.438-69.534-120.437 69.534v139.07l120.437 69.534 120.438-69.534z" fill="none" stroke="#231f20" stroke-linejoin="round" stroke-miterlimit="10" stroke-width="8" transform="matrix(.35277768514 0 0 -.35277768514 260.49362756599 75.00192540395)"/><path d="m0 0-95.617-55.204-95.618 55.204v110.41l95.618 55.205 95.617-55.205z" fill="#c71e25" transform="matrix(.35277768514 0 0 -.35277768514 251.73757958754 69.94658589815)"/><path d="m0 0-120.438-69.534-120.437 69.534v139.07l120.437 69.534 120.438-69.534z" fill="#f5f5f5" transform="matrix(.35277768514 0 0 -.35277768514 174.38316513002 225.89673802375)"/><path d="m0 0-120.438-69.534-120.437 69.534v139.07l120.437 69.534 120.438-69.534z" fill="none" stroke="#231f20" stroke-linejoin="round" stroke-miterlimit="10" stroke-width="8" transform="matrix(.35277768514 0 0 -.35277768514 174.38316513002 225.89673802375)"/><path d="m0 0-95.617-55.204-95.618 55.204v110.41l95.618 55.205 95.617-55.205z" fill="#c71e25" transform="matrix(.35277768514 0 0 -.35277768514 165.62711715156 220.84139851794)"/></svg>