<svg height="771.59332" viewBox="0 0 771.59534 771.59332" width="771.59534" xmlns="http://www.w3.org/2000/svg" xmlns:xlink="http://www.w3.org/1999/xlink"><clipPath id="a"><path d="m0 600h600v-600h-600z"/></clipPath><g clip-path="url(#a)" transform="matrix(1.3333333 0 0 -1.3333333 -14.202333 785.79665)"><path d="m0 0c-3.922 0-7.608 1.527-10.382 4.3l-269.666 269.666c-5.723 5.724-5.723 15.039 0 20.763l269.666 269.667c2.774 2.772 6.46 4.299 10.382 4.299s7.608-1.527 10.382-4.299l269.666-269.667c5.723-5.724 5.723-15.039 0-20.763l-269.666-269.666c-2.774-2.773-6.46-4.3-10.382-4.3" fill="#191715" transform="translate(300 15.6523)"/><path d="m0 0c-5.037 0-10.073-1.921-13.917-5.765l-269.666-269.666c-7.687-7.686-7.687-20.147 0-27.834l269.666-269.666c3.844-3.842 8.88-5.764 13.917-5.764s10.073 1.922 13.917 5.764l269.666 269.666c7.687 7.687 7.687 20.148 0 27.834l-269.666 269.666c-3.844 3.844-8.88 5.765-13.917 5.765m0-10c2.586 0 5.017-1.007 6.846-2.835l269.667-269.667c1.828-1.828 2.835-4.26 2.835-6.846s-1.007-5.016-2.835-6.845l-269.667-269.666c-1.829-1.829-4.26-2.836-6.846-2.836s-5.017 1.007-6.846 2.836l-269.667 269.666c-1.828 1.829-2.835 4.259-2.835 6.845s1.007 5.018 2.835 6.846l269.667 269.667c1.829 1.828 4.26 2.835 6.846 2.835" fill="#fff" transform="translate(300 589.3475)"/><path d="m0 0c0-23.438-19.001-42.438-42.439-42.438-23.439 0-42.44 19-42.44 42.438 0 23.439 19.001 42.439 42.44 42.439 23.438 0 42.439-19 42.439-42.439" fill="#191715" transform="translate(342.4395 433.6796)"/><path d="m0 0c0-23.438-19.001-42.438-42.439-42.438-23.439 0-42.44 19-42.44 42.438 0 23.439 19.001 42.439 42.44 42.439 23.438 0 42.439-19 42.439-42.439z" style="fill:none;stroke:#fff;stroke-width:15;stroke-linecap:round;stroke-miterlimit:10;stroke-dasharray:14.81 29.62" transform="translate(342.4395 433.6796)"/><path d="m0 0 50.096 191.962h19l50.095-191.962s-16.081-12.102-53.454-12.102c-37.372 0-65.737 12.102-65.737 12.102" fill="#191715" transform="translate(240.4043 165.4823)"/><g fill="none" stroke="#fff" stroke-linecap="round" stroke-linejoin="round" stroke-width="15"><path d="m0 0c-4.521 1.508-7.037 2.581-7.037 2.581l1.893 7.257" transform="translate(247.4414 162.9013)"/><path d="m0 0 33.679 129.053" stroke-dasharray="16.672 33.344" transform="translate(250.7178 205.0028)"/><path d="m0 0 1.894 7.257h7.5" transform="translate(288.6064 350.1874)"/><path d="m0 0h7.5l1.894-7.257" transform="translate(302 357.4442)"/><path d="m0 0 33.679-129.053" stroke-dasharray="16.672 33.344" transform="translate(319.8135 317.9237)"/><path d="m0 0 1.894-7.257s-2.106-1.584-6.563-3.606" transform="translate(357.7021 172.7392)"/><path d="m0 0c-6.073-.862-13.06-1.41-21.01-1.41-18.104 0-34.095 2.84-45.771 5.768" stroke-dasharray="13.461 26.922" transform="translate(327.1514 154.7909)"/></g></g></svg>