<svg height="252.25507" viewBox="0 0 340.31387 252.25507" width="340.31387" xmlns="http://www.w3.org/2000/svg" xmlns:xlink="http://www.w3.org/1999/xlink"><clipPath id="a"><path d="m0 300h300v-300h-300z"/></clipPath><g clip-path="url(#a)" fill="#fff" transform="matrix(1.3333333 0 0 -1.3333333 -29.842533 326.12693)"><path d="m0 0c-22.726 0-41.146-9.21-41.146-20.573s18.42-20.573 41.146-20.573c22.72 0 41.146 9.21 41.146 20.573s-18.426 20.573-41.146 20.573" transform="translate(129.5013 124.2959)"/><path d="m0 0c-2.39-3.46-4.438-7.159-6.105-11.045h9.514l40.804-35.338-40.804-35.336h-81.606l-40.804 35.336 40.804 35.338h17.202c.811 3.735 1.81 7.42 2.988 11.045h-32.945l-53.559-46.383 53.559-46.384h107.116l53.558 46.384-53.558 46.383z" transform="translate(166.8929 148.1709)"/><path d="m0 0c-9.896 0-17.949 8.052-17.949 17.949 0 26.7 9.938 52.28 27.984 72.026 16.786 18.366 39.202 30.229 63.57 33.742v26.177l74.513-43.026-74.513-43.027v23.415c-32.134-7.079-55.655-35.832-55.655-69.307 0-9.897-8.053-17.949-17.95-17.949" transform="translate(129.4993 94.7012)"/></g></svg>