<svg height="265.94257" viewBox="0 0 319.99966 265.94257" width="319.99966" xmlns="http://www.w3.org/2000/svg" xmlns:xlink="http://www.w3.org/1999/xlink"><clipPath id="a"><path d="m0 300h300v-300h-300z"/></clipPath><g clip-path="url(#a)" fill="#fff" transform="matrix(1.3333333 0 0 -1.3333333 -40.000116 332.97122)"><path d="m0 0c8.271-7.591 36.133-30.492 75.469-34.946.598-.068 1.066-.546 1.11-1.147 1.565-21.368 5.244-53.902 28.692-98.315.35-.663 1.205-.874 1.822-.448 2.786 1.924 5.61 3.955 6.998 4.959.505.366.662 1.043.37 1.595-2.657 5.032-14.981 29.089-20.245 52.115-.126.551.132 1.116.631 1.382 12.297 6.551 55.927 26.726 65.282 31.042.83.383 1.774-.224 1.774-1.138v-77.94c0-.322-.125-.632-.347-.865l-36.981-38.679c-.236-.248-.361-.582-.346-.925l1.644-34.503c.034-.714-.536-1.312-1.251-1.312h-59.915c-.889 0-1.494.899-1.16 1.723l12.865 31.71c.061.15.092.309.092.47v26.455c0 .476-.269.908-.693 1.121-1.973.992-7.372 4.434-5.811 11.81.151.714-.351 1.404-1.076 1.486-11.17 1.271-26.378 5.539-32.903 13.715-.707.886-.006 2.17 1.12 2.039 7.669-.891 16.389.777 21.218 1.947 1.174.284 1.302 1.904.188 2.369-9.344 3.904-34.436 16.326-40.807 39.305-.295 1.066.821 1.965 1.799 1.449 12.901-6.796 24.064-8.896 30.198-9.537 1.313-.137 1.91 1.59.799 2.301-12.188 7.808-46.861 32.962-52.62 69.64-.184 1.169 1.212 1.922 2.084 1.122" transform="translate(32.1006 249.3965)"/><path d="m0 0h91.741c.835 0 1.507.681 1.501 1.516-.069 9.306-3.463 58.344-67.249 58.684-.421.003-.826-.172-1.112-.48-4.581-4.938-24.422-25.337-27.706-28.712-.295-.303-.446-.715-.421-1.137l1.748-28.463c.049-.791.705-1.408 1.498-1.408" transform="translate(176.7578 50.2715)"/></g></svg>