<svg height="771.59332" viewBox="0 0 771.59534 771.59332" width="771.59534" xmlns="http://www.w3.org/2000/svg" xmlns:xlink="http://www.w3.org/1999/xlink"><clipPath id="a"><path d="m0 600h600v-600h-600z"/></clipPath><g clip-path="url(#a)" transform="matrix(1.3333333 0 0 -1.3333333 -14.2026 785.79665)"><path d="m0 0c-3.922 0-7.608 1.527-10.382 4.3l-269.666 269.666c-5.723 5.724-5.723 15.039 0 20.763l269.666 269.667c2.774 2.772 6.46 4.299 10.382 4.299s7.608-1.527 10.382-4.299l269.666-269.667c5.723-5.724 5.723-15.039 0-20.763l-269.666-269.666c-2.774-2.773-6.46-4.3-10.382-4.3" fill="#c6833f" transform="translate(300.0002 15.6523)"/><g fill="#fff"><path d="m0 0c-5.037 0-10.074-1.921-13.917-5.765l-269.666-269.666c-7.687-7.686-7.687-20.147 0-27.834l269.666-269.666c3.843-3.842 8.88-5.764 13.917-5.764s10.073 1.922 13.917 5.764l269.666 269.666c7.687 7.687 7.687 20.148 0 27.834l-269.666 269.666c-3.844 3.844-8.88 5.765-13.917 5.765m0-10c2.586 0 5.017-1.007 6.846-2.835l269.667-269.667c1.828-1.828 2.835-4.26 2.835-6.846s-1.007-5.016-2.836-6.845l-269.666-269.666c-1.829-1.829-4.26-2.836-6.846-2.836s-5.018 1.007-6.846 2.836l-269.667 269.666c-3.774 3.774-3.774 9.917 0 13.691l269.667 269.667c1.828 1.828 4.26 2.835 6.846 2.835" transform="translate(300.0002 589.3475)"/><path d="m0 0-18.052-18.182h-347.302l-7.221-11.818 7.221-11.818h347.302l18.052-18.182 79.425 30z" transform="translate(446.5754 329.9999)"/><path d="m0 0 30.093 23.392h-26.632l26.632 46.162-42.611-32.847v118.068l-36.397-94.987-23.081 45.275v-48.381l-25.633 9.321 23.939-40.728c.875-1.488 2.817-1.963 4.262-1.022 5.714 3.725 20.408 11.101 38.452 3.368 13.682-5.863 22.899-20.293 26.454-26.704.904-1.632 3.049-2.062 4.522-.917" transform="translate(356.9611 331.5243)"/><path d="m0 0 30.093-23.392h-26.632l26.632-46.162-42.611 32.846v-118.068l-36.397 94.987-23.081-45.274v48.381l-25.633-9.321 23.939 40.728c.875 1.487 2.817 1.963 4.262 1.021 5.714-3.724 20.408-11.1 38.452-3.367 13.682 5.863 22.899 20.293 26.454 26.704.904 1.632 3.049 2.062 4.522.917" transform="translate(356.9611 266.2763)"/></g></g></svg>