<svg height="771.59332" viewBox="0 0 771.59534 771.59332" width="771.59534" xmlns="http://www.w3.org/2000/svg" xmlns:xlink="http://www.w3.org/1999/xlink"><clipPath id="a"><path d="m0 600h600v-600h-600z"/></clipPath><g clip-path="url(#a)" transform="matrix(1.3333333 0 0 -1.3333333 -14.202333 785.79665)"><path d="m0 0c-3.922 0-7.608 1.527-10.382 4.3l-269.666 269.666c-5.723 5.724-5.723 15.039 0 20.763l269.666 269.667c2.774 2.772 6.46 4.299 10.382 4.299s7.608-1.527 10.382-4.299l269.666-269.667c5.724-5.724 5.724-15.039 0-20.763l-269.666-269.666c-2.774-2.773-6.46-4.3-10.382-4.3" fill="#747c5e" transform="translate(300 15.6523)"/><path d="m0 0c-5.037 0-10.073-1.921-13.917-5.765l-269.666-269.666c-7.687-7.686-7.687-20.147 0-27.834l269.666-269.666c3.844-3.842 8.88-5.764 13.917-5.764s10.073 1.922 13.917 5.764l269.666 269.666c7.687 7.687 7.687 20.148 0 27.834l-269.666 269.666c-3.844 3.844-8.88 5.765-13.917 5.765m0-10c2.586 0 5.017-1.007 6.846-2.835l269.667-269.667c3.774-3.774 3.774-9.917 0-13.691l-269.667-269.666c-1.828-1.829-4.26-2.836-6.846-2.836s-5.017 1.007-6.846 2.836l-269.667 269.666c-3.774 3.774-3.774 9.917 0 13.691l269.667 269.667c1.829 1.828 4.26 2.835 6.846 2.835" fill="#fff" transform="translate(300 589.3475)"/><path d="m0 0c-7.499 32.863-24.952 95.097-169.214 95.097-144.261 0-161.714-62.234-169.213-95.097-13.352-58.51 12.708-86.403 27.65-96.87 18.397-12.889 62.193-15.086 62.193-15.086s-5.897-29.203 0-35.998c12.975-14.949 141.475-15.949 158.741 0 6.61 6.105 0 35.998 0 35.998s43.796 2.197 62.194 15.086c14.94 10.467 41.002 38.36 27.649 96.87" fill="#fff" transform="translate(475.3554 323.37)"/><path d="m0 0c-8.886-1.687-22.468-37.379-19.615-44.226 2.852-6.846 9.088 2.836 22.252 0 11.613-2.503 11.58-5.68 17.613-5.753 4.268-.05.096 18.301-3.416 36-2.667 13.438-7.947 15.666-16.834 13.979" fill="#747c5e" transform="translate(298.9716 272.9452)"/><path d="m0 0 29.903 26.16c3.029 2.958 3.029 7.756 0 10.714-3.026 2.96-7.939 2.96-10.966 0l-26.007-29.804-26.569 29.793c-2.769 2.952-7.266 2.952-10.036 0-2.772-2.95-2.772-7.736 0-10.686l29.534-26.177-30.006-26.162c-3.102-2.957-3.102-7.752 0-10.709 1.548-1.48 3.582-2.219 5.614-2.219 2.031 0 4.064.739 5.613 2.219l25.85 29.801 26.479-29.67c1.405-1.434 3.249-2.151 5.092-2.151s3.687.717 5.093 2.151c2.812 2.865 2.812 7.512 0 10.379z" fill="#747c5e" transform="translate(232.1562 304.9999)"/><path d="m0 0 29.903 26.16c3.029 2.958 3.029 7.756 0 10.714-3.026 2.96-7.939 2.96-10.966 0l-26.007-29.804-26.569 29.793c-2.769 2.952-7.266 2.952-10.036 0-2.772-2.95-2.772-7.736 0-10.686l29.534-26.177-30.006-26.162c-3.102-2.957-3.102-7.752 0-10.709 1.548-1.48 3.582-2.219 5.614-2.219 2.031 0 4.064.739 5.613 2.219l25.85 29.801 26.479-29.67c1.405-1.434 3.249-2.151 5.092-2.151s3.687.717 5.093 2.151c2.812 2.865 2.812 7.512 0 10.379z" fill="none" stroke="#747c60" stroke-miterlimit="10" stroke-width="5" transform="translate(232.1562 304.9999)"/><path d="m0 0 29.903 26.16c3.03 2.958 3.03 7.756 0 10.714-3.026 2.96-7.939 2.96-10.965 0l-26.008-29.804-26.569 29.793c-2.769 2.952-7.266 2.952-10.036 0-2.772-2.95-2.772-7.736 0-10.686l29.534-26.177-30.006-26.162c-3.102-2.957-3.102-7.752 0-10.709 1.549-1.48 3.583-2.219 5.614-2.219s4.064.739 5.614 2.219l25.849 29.801 26.479-29.67c1.405-1.434 3.25-2.151 5.093-2.151 1.842 0 3.686.717 5.092 2.151 2.813 2.865 2.813 7.512 0 10.379z" fill="#747c5e" transform="translate(382.1425 304.9999)"/><path d="m0 0 29.903 26.16c3.03 2.958 3.03 7.756 0 10.714-3.026 2.96-7.939 2.96-10.965 0l-26.008-29.804-26.569 29.793c-2.769 2.952-7.266 2.952-10.036 0-2.772-2.95-2.772-7.736 0-10.686l29.534-26.177-30.006-26.162c-3.102-2.957-3.102-7.752 0-10.709 1.549-1.48 3.583-2.219 5.614-2.219s4.064.739 5.614 2.219l25.849 29.801 26.479-29.67c1.405-1.434 3.25-2.151 5.093-2.151 1.842 0 3.686.717 5.092 2.151 2.813 2.865 2.813 7.512 0 10.379z" fill="none" stroke="#747c60" stroke-miterlimit="10" stroke-width="5" transform="translate(382.1425 304.9999)"/></g></svg>