<svg height="336.67001" viewBox="0 0 287.60812 336.67001" width="287.60812" xmlns="http://www.w3.org/2000/svg" xmlns:xlink="http://www.w3.org/1999/xlink"><clipPath id="a"><path d="m0 300h300v-300h-300z"/></clipPath><g clip-path="url(#a)" fill="#fff" transform="matrix(1.3333333 0 0 -1.3333333 -56.196405 368.33561)"><path d="m0 0s-33.958 50.147-33.824 52.814c.296 5.935 48.066 56.671 56.968 61.122 8.9 4.451 30.263 4.451 44.505 8.011 14.243 3.56 24.923 8.011 29.374 1.781 4.451-6.231-3.56-36.496-14.242-41.836-18.172-9.087-32.934-8.012-32.934-8.012l-4.451-5.34s27.312-27.88 22.253-48.957c-5.34-22.253-19.583-45.396-53.407-54.298-11.19-2.944-14.242 34.715-14.242 34.715" transform="translate(75.9717 104.1563)"/><path d="m0 0c-1.841.436-3.409-1.4-2.671-3.142 4.943-11.673 15.918-45.63-5.841-79.131-18.692-28.782-48.957-29.374-48.957-29.374l7.418-35.012h61.418l5.403 31.185c.396 2.288 3.518 2.704 4.472.587 2.574-5.715 5.82-15.876 6.607-31.772h41.519s-7.245 42.13-4.593 59.934c2.077 13.946 28.484 42.43 28.484 42.43l-10.088 24.627z" transform="translate(152.1328 170.4082)"/><path d="m0 0-5.958 40.855s24.191 23.466 34.715 26.704c7.715 2.374 16.912-4.451 16.912-4.451l1.78-35.011s-15.132-1.78-20.176-4.451c-7.811-4.135-27.273-23.646-27.273-23.646" transform="translate(65.9072 205.7207)"/><path d="m0 0 .594 30.264s20.176 9.501 28.186 9.792c8.012.291 19.88-14.243 19.88-14.243s-2.405-17.802-6.527-18.692c-4.122-.89-42.133-7.121-42.133-7.121" transform="translate(129.3789 236.1914)"/><path d="m0 0s-16.918-50.498-18.693-70.913c-.593-6.824 28.484-12.462 30.264-8.011 1.781 4.45 19.879 63.198 18.99 70.32-.891 7.121-21.957 12.758-30.561 8.604" transform="translate(192.5781 252.5103)"/><path d="m0 0s-18.989-52.517-16.318-55.484c5.362-5.959 24.626-9.198 29.966.593 5.341 9.792 13.056 32.045 13.056 37.386 0 5.34-4.154 15.131-7.715 16.912-3.98 1.99-13.648 2.967-18.989.593" transform="translate(231.1494 222.8394)"/></g></svg>