<svg height="160mm" viewBox="0 0 160 160" width="160mm" xmlns="http://www.w3.org/2000/svg"><g transform="translate(-24.559893 -53.865665)"><path d="m97.066808 68.710299q3.703482-.430637 7.493082-.430637 3.7896 0 7.49308.430637l2.23931 16.105821q5.77054 1.119656 11.28269 3.703478l10.85205-11.368815q6.54568 3.875732 12.05784 9.387885l-7.23471 13.435872q4.04799 4.30637 6.8902 9.47401l14.21101-2.66995q3.18672 7.2347 4.56476 15.15842l-12.74686 5.94279q.34451 3.01446.34451 5.94279 0 2.92833-.34451 5.94279l12.74686 6.02892q-1.37804 7.83759-4.56476 15.07229l-14.21101-2.66995q-2.84221 5.16765-6.8902 9.56014l7.23471 13.34975q-5.51216 5.51215-12.05784 9.47401l-10.85205-11.36881q-5.51215 2.49769-11.28269 3.70347l-2.23931 16.0197q-3.70348.51676-7.49308.51676-3.7896 0-7.493082-.51676l-2.239312-16.0197q-5.770535-1.20578-11.282688-3.70347l-10.85205 11.36881q-6.545681-3.96186-12.057834-9.47401l7.2347-13.34975q-4.047987-4.30637-6.890191-9.56014l-14.211018 2.66995q-3.186713-7.2347-4.564752-15.07229l12.746853-6.02892q-.344509-3.01446-.344509-5.94279 0-2.92833.344509-5.94279l-12.746853-5.94279q1.378039-7.92372 4.564752-15.15842l14.211018 2.66995q2.842204-5.16764 6.890191-9.560138l-7.2347-13.349744q5.512153-5.512153 12.057834-9.387885l10.85205 11.282687q5.512153-2.497694 11.282688-3.61735zm34.278702 38.412811q-11.11044-11.196557-26.78562-11.196557-15.675184 0-26.785616 11.196557-11.110433 11.11044-11.110433 26.78562 0 15.58906 11.110433 26.69949 11.110432 11.11043 26.785616 11.11043 15.67518 0 26.78562-11.11043 11.11043-11.11043 11.11043-26.69949 0-15.67518-11.11043-26.78562zm-17.39774 17.31161q3.96186 3.87573 3.96186 9.38788 0 5.51216-3.96186 9.47402-3.87573 3.87573-9.38788 3.87573-5.512152 0-9.474012-3.87573-3.875732-3.96186-3.875732-9.47402 0-5.51215 3.875732-9.38788 3.96186-3.96186 9.474012-3.96186 5.51215 0 9.38788 3.96186z"/><rect fill="none" height="150" rx="30" stroke="#000" stroke-width="10" width="150" x="29.559893" y="58.865665"/></g></svg>