<svg height="327.2269mm" viewBox="0 0 349.07388 327.2269" width="349.07388mm" xmlns="http://www.w3.org/2000/svg"><path d="m0 0-120.438-69.534-120.437 69.534v139.07l120.437 69.534 120.438-69.534z" fill="none" stroke="#231f20" stroke-linejoin="round" stroke-miterlimit="10" stroke-width="8" transform="matrix(.35277768514 0 0 -.35277768514 86.38643520994 75.2216118602)"/><path d="m0 0-95.617-55.204-95.617 55.204v110.41l95.617 55.205 95.617-55.205z" fill="#535456" transform="matrix(.35277768514 0 0 -.35277768514 77.63038723148 70.16627235439)"/><path d="m0 0-120.438-69.534-120.437 69.534v139.07l120.437 69.534 120.438-69.534z" fill="#f5f5f5" transform="matrix(.35277768514 0 0 -.35277768514 217.02459792016 150.39994855822)"/><path d="m0 0-120.438-69.534-120.437 69.534v139.07l120.437 69.534 120.438-69.534z" fill="none" stroke="#231f20" stroke-linejoin="round" stroke-miterlimit="10" stroke-width="8" transform="matrix(.35277768514 0 0 -.35277768514 217.02459792016 150.39994855822)"/><path d="m0 0-95.617-55.204-95.618 55.204v110.41l95.618 55.205 95.617-55.205z" fill="#c71e25" transform="matrix(.35277768514 0 0 -.35277768514 208.26854994171 145.34460905242)"/><path d="m0 0-120.438-69.534-120.437 69.534v139.07l120.437 69.534 120.438-69.534z" fill="#f5f5f5" transform="matrix(.35277768514 0 0 -.35277768514 304.56896442141 150.18924497755)"/><path d="m0 0-120.438-69.534-120.437 69.534v139.07l120.437 69.534 120.438-69.534z" fill="none" stroke="#231f20" stroke-linejoin="round" stroke-miterlimit="10" stroke-width="8" transform="matrix(.35277768514 0 0 -.35277768514 304.56896442141 150.18924497755)"/><path d="m0 0-95.617-55.204-95.618 55.204v110.41l95.618 55.205 95.617-55.205z" fill="#c71e25" transform="matrix(.35277768514 0 0 -.35277768514 295.81291644295 145.13390547174)"/><path d="m0 0-120.438-69.534-120.437 69.534v139.07l120.437 69.534 120.438-69.534z" fill="#f5f5f5" transform="matrix(.35277768514 0 0 -.35277768514 260.64757072475 75.21263956797)"/><path d="m0 0-120.438-69.534-120.437 69.534v139.07l120.437 69.534 120.438-69.534z" fill="none" stroke="#231f20" stroke-linejoin="round" stroke-miterlimit="10" stroke-width="8" transform="matrix(.35277768514 0 0 -.35277768514 260.64757072475 75.21263956797)"/><path d="m0 0-95.617-55.204-95.618 55.204v110.41l95.618 55.205 95.617-55.205z" fill="#c71e25" transform="matrix(.35277768514 0 0 -.35277768514 251.89152274629 70.15730006216)"/><path d="m0 0-120.438-69.534-120.437 69.534v139.07l120.437 69.534 120.438-69.534z" fill="#f5f5f5" transform="matrix(.35277768514 0 0 -.35277768514 347.66277056599 75.00192540395)"/><path d="m0 0-120.438-69.534-120.437 69.534v139.07l120.437 69.534 120.438-69.534z" fill="none" stroke="#231f20" stroke-linejoin="round" stroke-miterlimit="10" stroke-width="8" transform="matrix(.35277768514 0 0 -.35277768514 347.66277056599 75.00192540395)"/><path d="m0 0-95.617-55.204-95.618 55.204v110.41l95.618 55.205 95.617-55.205z" fill="#c71e25" transform="matrix(.35277768514 0 0 -.35277768514 338.90672258754 69.94658589815)"/><path d="m0 0-120.438-69.534-120.437 69.534v139.07l120.437 69.534 120.438-69.534z" fill="#f5f5f5" transform="matrix(.35277768514 0 0 -.35277768514 174.0079442746 226.10745218776)"/><path d="m0 0-120.438-69.534-120.437 69.534v139.07l120.437 69.534 120.438-69.534z" fill="none" stroke="#231f20" stroke-linejoin="round" stroke-miterlimit="10" stroke-width="8" transform="matrix(.35277768514 0 0 -.35277768514 174.0079442746 226.10745218776)"/><path d="m0 0-95.617-55.204-95.618 55.204v110.41l95.618 55.205 95.617-55.205z" fill="#c71e25" transform="matrix(.35277768514 0 0 -.35277768514 165.25189629615 221.05211268195)"/><path d="m0 0-120.438-69.534-120.437 69.534v139.07l120.437 69.534 120.438-69.534z" fill="#f5f5f5" transform="matrix(.35277768514 0 0 -.35277768514 261.55230813002 225.89673802375)"/><path d="m0 0-120.438-69.534-120.437 69.534v139.07l120.437 69.534 120.438-69.534z" fill="none" stroke="#231f20" stroke-linejoin="round" stroke-miterlimit="10" stroke-width="8" transform="matrix(.35277768514 0 0 -.35277768514 261.55230813002 225.89673802375)"/><path d="m0 0-95.617-55.204-95.618 55.204v110.41l95.618 55.205 95.617-55.205z" fill="#c71e25" transform="matrix(.35277768514 0 0 -.35277768514 252.79626015156 220.84139851794)"/><path d="m0 0-120.438-69.534-120.437 69.534v139.07l120.437 69.534 120.438-69.534z" fill="#f5f5f5" transform="matrix(.35277768514 0 0 -.35277768514 218.08328313599 301.2857812198)"/><path d="m0 0-120.438-69.534-120.437 69.534v139.07l120.437 69.534 120.438-69.534z" fill="none" stroke="#231f20" stroke-linejoin="round" stroke-miterlimit="10" stroke-width="8" transform="matrix(.35277768514 0 0 -.35277768514 218.08328313599 301.2857812198)"/><path d="m0 0-95.617-55.204-95.618 55.204v110.41l95.618 55.205 95.617-55.205z" fill="#c71e25" transform="matrix(.35277768514 0 0 -.35277768514 209.32723515754 296.23044171399)"/><path d="m0 0-120.438-69.534-120.437 69.534v139.07l120.437 69.534 120.438-69.534z" fill="#f5f5f5" transform="matrix(.35277768514 0 0 -.35277768514 173.47842571877 75.22161158869)"/><path d="m0 0-120.438-69.534-120.437 69.534v139.07l120.437 69.534 120.438-69.534z" fill="none" stroke="#231f20" stroke-linejoin="round" stroke-miterlimit="10" stroke-width="8" transform="matrix(.35277768514 0 0 -.35277768514 173.47842571877 75.22161158869)"/><path d="m0 0-95.617-55.204-95.618 55.204v110.41l95.618 55.205 95.617-55.205z" fill="#c71e25" transform="matrix(.35277768514 0 0 -.35277768514 164.72237774032 70.16627208288)"/><path d="m0 0-120.438-69.534-120.437 69.534v139.07l120.437 69.534 120.438-69.534z" fill="#f5f5f5" transform="matrix(.35277768514 0 0 -.35277768514 129.93295810279 150.92911521822)"/><path d="m0 0-120.438-69.534-120.437 69.534v139.07l120.437 69.534 120.438-69.534z" fill="none" stroke="#231f20" stroke-linejoin="round" stroke-miterlimit="10" stroke-width="8" transform="matrix(.35277768514 0 0 -.35277768514 129.93295810279 150.92911521822)"/><path d="m0 0-95.617-55.204-95.618 55.204v110.41l95.618 55.205 95.617-55.205z" fill="#c71e25" transform="matrix(.35277768514 0 0 -.35277768514 121.17691012434 145.87377571242)"/></svg>