<svg height="308.50266" viewBox="0 0 308.50131 308.50266" width="308.50131" xmlns="http://www.w3.org/2000/svg" xmlns:xlink="http://www.w3.org/1999/xlink"><clipPath id="a"><path d="m0 300h300v-300h-300z"/></clipPath><g clip-path="url(#a)" fill="#fff" transform="matrix(1.3333333 0 0 -1.3333333 -45.748932 354.25146)"><path d="m0 0c-48.085 0-87.066 38.981-87.066 87.066s38.981 87.067 87.066 87.067c48.086 0 87.066-38.982 87.066-87.067s-38.98-87.066-87.066-87.066m0 202.755c-63.893 0-115.688-51.796-115.688-115.689 0-63.892 51.795-115.688 115.688-115.688 63.894 0 115.688 51.796 115.688 115.688 0 63.893-51.794 115.689-115.688 115.689" transform="translate(149.9997 62.9336)"/><path d="m0 0c-22.478 0-40.699 18.223-40.699 40.7 0 22.478 18.221 40.7 40.699 40.7 22.479 0 40.7-18.222 40.7-40.7 0-22.477-18.221-40.7-40.7-40.7m0 113.636c-40.281 0-72.936-32.655-72.936-72.936 0-40.281 32.655-72.935 72.936-72.935s72.936 32.654 72.936 72.935-32.655 72.936-72.936 72.936" transform="translate(149.9997 109.2998)"/></g></svg>