<svg height="746.66663" viewBox="0 0 746.66663 746.66663" width="746.66663" xmlns="http://www.w3.org/2000/svg" xmlns:xlink="http://www.w3.org/1999/xlink"><clipPath id="a"><path d="m0 600h600v-600h-600z"/></clipPath><g clip-path="url(#a)" transform="matrix(1.3333333 0 0 -1.3333333 -26.666666 773.33331)"><path d="m0 0c-140.056 0-254-113.944-254-254s113.944-254 254-254 254 113.944 254 254-113.944 254-254 254m0-529.566c-37.189 0-73.281 7.289-107.271 21.666-32.816 13.879-62.284 33.746-87.584 59.045-25.301 25.302-45.166 54.769-59.045 87.584-14.377 33.989-21.666 70.08-21.666 107.271s7.289 73.282 21.666 107.27c13.879 32.816 33.744 62.283 59.045 87.585 25.301 25.301 54.769 45.166 87.584 59.045 33.99 14.377 70.082 21.666 107.271 21.666s73.281-7.289 107.271-21.666c32.815-13.879 62.283-33.744 87.584-59.045 25.3-25.301 45.167-54.769 59.046-87.585 14.376-33.988 21.665-70.08 21.665-107.27s-7.289-73.282-21.665-107.271c-13.879-32.815-33.746-62.283-59.046-87.584-25.3-25.299-54.768-45.166-87.584-59.045-33.99-14.377-70.082-21.666-107.271-21.666" fill="#fff" transform="translate(300 554)"/><path d="m0 0c-2.607.001-4.236 1.082-5.144 1.99l-165.328 165.327-165.328-165.327c-.907-.908-2.537-1.99-5.144-1.99-9.428 0-33.532 18.093-39.001 31.297-2.906 7.014-.17 11.23 1.719 13.119l165.328 165.328-165.328 165.328c-2.085 2.084-5.047 6.872-1.467 15.515 5.437 13.127 23.817 30.064 35.888 30.064 3.175 0 5.944-1.09 8.005-3.153l165.328-165.327 165.328 165.327c2.062 2.063 4.831 3.153 8.005 3.153 12.072 0 30.452-16.937 35.889-30.064 3.58-8.643.617-13.431-1.468-15.515l-165.327-165.328 165.327-165.328c1.89-1.89 4.626-6.106 1.718-13.123-5.472-13.205-29.571-31.293-38.998-31.293z" fill="#e34e61" transform="translate(470.4717 90.2558)"/><path d="m0 0 161.792-161.792-161.792-161.792c-2.231-2.231 47.271-51.726 49.498-49.498l161.792 161.792 161.792-161.792c2.228-2.228 51.73 47.267 49.498 49.498l-161.792 161.792 161.792 161.792c2.389 2.389-46.477 52.518-49.498 49.498l-161.792-161.793-161.792 161.793c-3.019 3.019-51.887-47.109-49.498-49.498m384.623 44.114c13.091 0 39.483-28.446 30.886-37.043l-168.864-168.863 168.864-168.863c9.048-9.048-24.846-35.882-33.746-35.882-.703 0-1.252.169-1.61.526l-168.863 168.864-168.863-168.864c-.358-.358-.906-.526-1.61-.526-8.902 0-42.793 26.834-33.746 35.882l168.864 168.863-168.864 168.863c-8.597 8.598 17.795 37.046 30.886 37.043 1.773 0 3.305-.522 4.47-1.687l168.863-168.864 168.863 168.864c1.166 1.165 2.696 1.687 4.47 1.687" fill="#fff" transform="translate(88.71 461.792)"/><path d="m0 0c-37.793 0-74.463-7.405-108.994-22.011-33.344-14.102-63.286-34.29-88.996-59.999-25.709-25.71-45.897-55.652-59.999-88.997-14.606-34.529-22.011-71.2-22.011-108.993s7.405-74.464 22.011-108.993c14.102-33.345 34.29-63.287 59.999-88.997 25.71-25.709 55.652-45.896 88.996-59.999 34.531-14.606 71.201-22.011 108.994-22.011s74.463 7.405 108.994 22.011c33.344 14.103 63.286 34.29 88.996 59.999 25.709 25.71 45.897 55.652 60 88.997 14.605 34.529 22.01 71.2 22.01 108.993s-7.405 74.464-22.01 108.993c-14.103 33.345-34.291 63.287-60 88.997-25.71 25.709-55.652 45.897-88.996 59.999-34.531 14.606-71.201 22.011-108.994 22.011m0-16c145.803 0 264-118.196 264-264 0-145.803-118.197-264-264-264s-264 118.197-264 264c0 145.804 118.197 264 264 264" fill="#e34e61" transform="translate(300 580)"/></g></svg>