<svg height="771.59332" viewBox="0 0 771.59534 771.59332" width="771.59534" xmlns="http://www.w3.org/2000/svg" xmlns:xlink="http://www.w3.org/1999/xlink"><clipPath id="a"><path d="m0 600h600v-600h-600z"/></clipPath><g clip-path="url(#a)" transform="matrix(1.3333333 0 0 -1.3333333 -14.202333 785.79665)"><path d="m0 0c-3.922 0-7.608 1.527-10.382 4.3l-269.666 269.666c-5.723 5.724-5.723 15.039 0 20.763l269.666 269.667c2.774 2.772 6.46 4.299 10.382 4.299s7.608-1.527 10.382-4.299l269.666-269.667c5.724-5.724 5.724-15.039 0-20.763l-269.666-269.666c-2.774-2.773-6.46-4.3-10.382-4.3" fill="#a91c22" transform="translate(300 15.6523)"/><g fill="#fff"><path d="m0 0c-5.037 0-10.073-1.921-13.917-5.765l-269.666-269.666c-7.687-7.686-7.687-20.147 0-27.834l269.666-269.666c3.844-3.842 8.88-5.764 13.917-5.764s10.073 1.922 13.917 5.764l269.666 269.666c7.687 7.687 7.687 20.148 0 27.834l-269.666 269.666c-3.844 3.844-8.88 5.765-13.917 5.765m0-10c2.586 0 5.017-1.007 6.846-2.835l269.667-269.667c3.774-3.774 3.774-9.917 0-13.691l-269.667-269.666c-1.829-1.829-4.26-2.836-6.846-2.836s-5.017 1.007-6.846 2.836l-269.667 269.666c-1.828 1.829-2.835 4.259-2.835 6.845s1.007 5.018 2.835 6.846l269.667 269.667c1.829 1.828 4.26 2.835 6.846 2.835" transform="translate(300 589.3475)"/><path d="m0 0c-65.335 0-118.3 52.965-118.3 118.3 0 65.336 52.965 118.3 118.3 118.3s118.3-52.964 118.3-118.3c0-65.335-52.965-118.3-118.3-118.3m0 275.489c-86.813 0-157.189-70.376-157.189-157.189 0-86.814 70.376-157.19 157.189-157.19s157.189 70.376 157.189 157.19c0 86.813-70.376 157.189-157.189 157.189" transform="translate(300 181.7001)"/><path d="m0 0c-26.094 0-47.246 21.152-47.246 47.246s21.152 47.246 47.246 47.246c26.093 0 47.246-21.152 47.246-47.246s-21.153-47.246-47.246-47.246m0 131.913c-46.76 0-84.667-37.907-84.667-84.667 0-46.76 37.907-84.666 84.667-84.666s84.667 37.906 84.667 84.666-37.907 84.667-84.667 84.667" transform="translate(300 252.7538)"/></g></g></svg>