<svg height="746.66663" viewBox="0 0 746.66663 746.66663" width="746.66663" xmlns="http://www.w3.org/2000/svg" xmlns:xlink="http://www.w3.org/1999/xlink"><clipPath id="a"><path d="m0 600h600v-600h-600z"/></clipPath><g clip-path="url(#a)" transform="matrix(1.3333333 0 0 -1.3333333 -26.666666 773.33331)"><path d="m0 0c-72.654 0-140.959 28.293-192.333 79.667s-79.667 119.68-79.667 192.333c0 72.654 28.293 140.959 79.667 192.333s119.679 79.667 192.333 79.667c72.653 0 140.959-28.293 192.333-79.667s79.667-119.679 79.667-192.333c0-72.653-28.293-140.959-79.667-192.333s-119.68-79.667-192.333-79.667" fill="#98b0b5" transform="translate(300 28)"/><g fill="#fff"><path d="m0 0c-37.793 0-74.463-7.405-108.994-22.01-33.344-14.104-63.286-34.291-88.996-60-25.709-25.71-45.896-55.652-60-88.996-14.605-34.531-22.01-71.201-22.01-108.994s7.405-74.464 22.01-108.993c14.104-33.345 34.291-63.287 60-88.997 25.71-25.709 55.652-45.897 88.996-59.999 34.531-14.606 71.201-22.011 108.994-22.011s74.464 7.405 108.993 22.011c33.345 14.102 63.287 34.29 88.997 59.999 25.709 25.71 45.897 55.652 59.999 88.997 14.606 34.529 22.011 71.2 22.011 108.993s-7.405 74.463-22.011 108.994c-14.102 33.344-34.29 63.286-59.999 88.996-25.71 25.709-55.652 45.896-88.997 60-34.529 14.605-71.2 22.01-108.993 22.01m0-16c145.803 0 264-118.197 264-264s-118.197-264-264-264-264 118.197-264 264 118.197 264 264 264" transform="translate(300 580)"/><path d="m0 0c-1.381.291-1.32 2.293.079 2.479 12.504 1.672 42.559 2.757 81.66-15.666 52-24.5 135.969-79.236 185.7-76.263 42.05 2.513 62.531 18.325 60.3 37.763-1.75 15.25-18.75 25.25-31.75 20.25s-18.75-16.75-17.75-27.75c-11 8.5-7 25-3.5 29.5s22.692 30.667 55.5 8c27.5-19 15.875-56.014 0-70-10.5-9.25-42-32.5-101.5-17.5s-123.649 69.333-157.5 85.5c-31.154 14.879-44.578 18.083-71.239 23.687" transform="translate(78.6426 272.7793)"/><path d="m0 0c-.97.531-.358 2.014.7 1.69 22.24-6.79 78.774-19.585 119.628-8.971 59.667 15.5 70.5 50.999 130 79.833 37.951 18.39 87.5 5.166 101-31.834 13.5-36.999-21.667-62.499-49.5-60.999-22.972 1.237-38.491 14.355-41.5 25.019-3.333 11.814 1.333 27.147 15 31.48-4-17.999 5.786-37.679 26-36.499 20 1.166 37.667 26.222 19 44.999-18.696 18.807-42 15.167-56 6.5-14.928-9.241-50-43.999-80-58.499-28.79-13.915-70.96-29.096-114.567-17.501-37.151 9.878-48.553 13.175-69.761 24.782" transform="translate(168.0537 279.374)"/><path d="m0 0c-1.263.484-.869 2.371.483 2.316 17.13-.694 65.046.092 90.217 28.105 31 34.5 23.941 58.037 51.5 83 19.25 17.436 63.27 22.991 94.25-3.5 34.5-29.5 16.167-87.084-18.083-104.834-29.002-15.029-65.417-10.166-73.667 13.334-9.187 26.169 9.75 49.25 29 49 20.302-.264 17.5-20.5 17.5-20.5s-6 10.495-14.25 9.25c-10.455-1.577-19.681-14.673-14.25-27.75 6.75-16.25 35.777-23.443 56.667 1.333 21.5 25.5 16.833 60.167-18.667 72.667-32.81 11.553-52.048-12.647-69.5-45.005-13.75-25.495-29.25-57.995-76.5-60.715-34.634-1.994-48.046.746-54.7 3.299" transform="translate(111.6816 313.1714)"/></g></g></svg>