<svg height="746.66663" viewBox="0 0 746.66663 746.66663" width="746.66663" xmlns="http://www.w3.org/2000/svg" xmlns:xlink="http://www.w3.org/1999/xlink"><clipPath id="a"><path d="m0 600h600v-600h-600z"/></clipPath><g clip-path="url(#a)" transform="matrix(1.3333333 0 0 -1.3333333 -26.666666 773.33331)"><path d="m0 0c-72.653 0-140.959 28.293-192.333 79.667s-79.667 119.68-79.667 192.333c0 72.654 28.293 140.959 79.667 192.333s119.68 79.667 192.333 79.667 140.959-28.293 192.333-79.667 79.667-119.679 79.667-192.333c0-72.653-28.293-140.959-79.667-192.333s-119.68-79.667-192.333-79.667" fill="#fff" transform="translate(300 28)"/><path d="m0 0c-37.793 0-74.463-7.405-108.994-22.01-33.344-14.104-63.286-34.291-88.996-60-25.709-25.71-45.897-55.652-59.999-88.996-14.606-34.531-22.011-71.201-22.011-108.994s7.405-74.464 22.011-108.993c14.102-33.345 34.29-63.287 59.999-88.997 25.71-25.709 55.652-45.897 88.996-59.999 34.531-14.606 71.201-22.011 108.994-22.011s74.463 7.405 108.994 22.011c33.344 14.102 63.286 34.29 88.996 59.999 25.709 25.71 45.897 55.652 60 88.997 14.605 34.529 22.01 71.2 22.01 108.993s-7.405 74.463-22.01 108.994c-14.103 33.344-34.291 63.286-60 88.996-25.71 25.709-55.652 45.896-88.996 60-34.531 14.605-71.201 22.01-108.994 22.01m0-16c145.803 0 264-118.197 264-264s-118.197-264-264-264-264 118.197-264 264 118.197 264 264 264" fill="#fff" transform="translate(300 580)"/><path d="m0 0s-160.142-93.372-228.669-132.022c-45.502 78.982-48.816 179.404.038 264.022 54.127-31.25 228.631-132 228.631-132" fill="#202830" transform="translate(300 300)"/><path d="m0 0s.792-185.372.001-264.044c-91.153.085-179.777 47.426-228.632 132.044 54.127 31.25 228.631 132 228.631 132" fill="#eca610" transform="translate(300 300)"/><path d="m0 0s160.934-92 228.669-132.021c-45.649-78.898-130.961-131.979-228.669-131.979z" fill="#7da82a" transform="translate(300 300)"/><path d="m0 0s160.141 93.373 228.668 132.022c45.503-78.982 48.817-179.404-.037-264.022-54.127 31.25-228.631 132-228.631 132" fill="#e2421f" transform="translate(300 300)"/><path d="m0 0s-.792 185.373-.001 264.044c91.153-.085 179.777-47.426 228.632-132.044-54.127-31.25-228.631-132-228.631-132" fill="#56c8ef" transform="translate(300 300)"/><path d="m0 0s-160.934 92-228.669 132.021c45.649 78.898 130.961 131.979 228.669 131.979z" fill="#98b0b5" transform="translate(300 300)"/></g></svg>