<svg height="1813.5383" viewBox="84 57 1157.2998 1813.5383" width="1157.2998" xmlns="http://www.w3.org/2000/svg"><path d="m0 0-120.438-69.534-120.437 69.534v139.07l120.437 69.534 120.438-69.534z" fill="#f5f5f5" transform="matrix(.6666665 -1.1547002 -1.1547002 -.6666665 410.50078094079 1587.0667780733)"/><path d="m0 0-120.438-69.534-120.437 69.534v139.07l120.437 69.534 120.438-69.534z" fill="none" stroke="#231f20" stroke-linejoin="round" stroke-miterlimit="10" stroke-width="8" transform="matrix(.6666665 -1.1547002 -1.1547002 -.6666665 410.50078094079 1587.0667780733)"/><path d="m0 0-95.617-55.204-95.617 55.204v110.41l95.617 55.205 95.617-55.205z" fill="#535456" transform="matrix(.6666665 -1.1547002 -1.1547002 -.6666665 377.40694907482 1606.17338583571)"/><path d="m0 0-120.438-69.534-120.437 69.534v139.07l120.437 69.534 120.438-69.534z" fill="#f5f5f5" transform="matrix(.6666665 -1.1547002 -1.1547002 -.6666665 575.96830094079 1300.5363780733)"/><path d="m0 0-120.438-69.534-120.437 69.534v139.07l120.437 69.534 120.438-69.534z" fill="none" stroke="#231f20" stroke-linejoin="round" stroke-miterlimit="10" stroke-width="8" transform="matrix(.6666665 -1.1547002 -1.1547002 -.6666665 575.96830094079 1300.5363780733)"/><path d="m0 0-95.617-55.204-95.618 55.204v110.41l95.618 55.205 95.617-55.205z" fill="#c71e25" transform="matrix(.6666665 -1.1547002 -1.1547002 -.6666665 542.87446907482 1319.64298583571)"/><path d="m0 0-120.438-69.534-120.437 69.534v139.07l120.437 69.534 120.438-69.534z" fill="#f5f5f5" transform="matrix(.6666665 -1.1547002 -1.1547002 -.6666665 740.71677094079 1013.5908780733)"/><path d="m0 0-120.438-69.534-120.437 69.534v139.07l120.437 69.534 120.438-69.534z" fill="none" stroke="#231f20" stroke-linejoin="round" stroke-miterlimit="10" stroke-width="8" transform="matrix(.6666665 -1.1547002 -1.1547002 -.6666665 740.71677094079 1013.5908780733)"/><path d="m0 0-95.617-55.204-95.618 55.204v110.41l95.618 55.205 95.617-55.205z" fill="#c71e25" transform="matrix(.6666665 -1.1547002 -1.1547002 -.6666665 707.62293907482 1032.69748583571)"/><path d="m0 0-120.438-69.534-120.437 69.534v139.07l120.437 69.534 120.438-69.534z" fill="#f5f5f5" transform="matrix(.6666665 -1.1547002 -1.1547002 -.6666665 905.76187094079 727.4526780733)"/><path d="m0 0-120.438-69.534-120.437 69.534v139.07l120.437 69.534 120.438-69.534z" fill="none" stroke="#231f20" stroke-linejoin="round" stroke-miterlimit="10" stroke-width="8" transform="matrix(.6666665 -1.1547002 -1.1547002 -.6666665 905.76187094079 727.4526780733)"/><path d="m0 0-95.617-55.204-95.618 55.204v110.41l95.618 55.205 95.617-55.205z" fill="#c71e25" transform="matrix(.6666665 -1.1547002 -1.1547002 -.6666665 872.66803907482 746.55928583571)"/><path d="m0 0-120.438-69.534-120.437 69.534v139.07l120.437 69.534 120.438-69.534z" fill="#f5f5f5" transform="matrix(.6666665 -1.1547002 -1.1547002 -.6666665 1070.92127094079 441.1847880733)"/><path d="m0 0-120.438-69.534-120.437 69.534v139.07l120.437 69.534 120.438-69.534z" fill="none" stroke="#231f20" stroke-linejoin="round" stroke-miterlimit="10" stroke-width="8" transform="matrix(.6666665 -1.1547002 -1.1547002 -.6666665 1070.92127094079 441.1847880733)"/><path d="m0 0-95.617-55.204-95.618 55.204v110.41l95.618 55.205 95.617-55.205z" fill="#c71e25" transform="matrix(.6666665 -1.1547002 -1.1547002 -.6666665 1037.82743907482 460.29139583571)"/><path d="m0 0-120.438-69.534-120.437 69.534v139.07l120.437 69.534 120.438-69.534z" fill="#f5f5f5" transform="matrix(.6666665 -1.1547002 -1.1547002 -.6666665 1235.96650094079 155.0465580733)"/><path d="m0 0-120.438-69.534-120.437 69.534v139.07l120.437 69.534 120.438-69.534z" fill="none" stroke="#231f20" stroke-linejoin="round" stroke-miterlimit="10" stroke-width="8" transform="matrix(.6666665 -1.1547002 -1.1547002 -.6666665 1235.96650094079 155.0465580733)"/><path d="m0 0-95.617-55.204-95.618 55.204v110.41l95.618 55.205 95.617-55.205z" fill="#c71e25" transform="matrix(.6666665 -1.1547002 -1.1547002 -.6666665 1202.87266907482 174.15316583571)"/></svg>