<svg viewBox="85 -228 662 671" xmlns="http://www.w3.org/2000/svg"><path d="m0 0-120.438-69.534-120.437 69.534v139.07l120.437 69.534 120.438-69.534z" fill="#f5f5f5" transform="matrix(1.333333 0 0 -1.333333 410.5832661875 342.7133518216)"/><path d="m0 0-120.438-69.534-120.437 69.534v139.07l120.437 69.534 120.438-69.534z" fill="none" stroke="#231f20" stroke-linejoin="round" stroke-miterlimit="10" stroke-width="8" transform="matrix(1.333333 0 0 -1.333333 410.5832661875 342.7133518216)"/><path d="m0 0-95.617-55.204-95.617 55.204v110.41l95.617 55.205 95.617-55.205z" fill="#535456" transform="matrix(1.333333 0 0 -1.333333 377.4895411276 323.6065565983)"/><path d="m0 0-120.438-69.534-120.437 69.534v139.07l120.437 69.534 120.438-69.534z" fill="#f5f5f5" transform="matrix(1.333333 0 0 -1.333333 741.4595861875 342.7472568216)"/><path d="m0 0-120.438-69.534-120.437 69.534v139.07l120.437 69.534 120.438-69.534z" fill="none" stroke="#231f20" stroke-linejoin="round" stroke-miterlimit="10" stroke-width="8" transform="matrix(1.333333 0 0 -1.333333 741.4595861875 342.7472568216)"/><path d="m0 0-95.617-55.204-95.618 55.204v110.41l95.618 55.205 95.617-55.205z" fill="#c71e25" transform="matrix(1.333333 0 0 -1.333333 708.3658611276 323.6404615983)"/><path d="m0 0-120.438-69.534-120.437 69.534v139.07l120.437 69.534 120.438-69.534z" fill="#f5f5f5" transform="matrix(1.333333 0 0 -1.333333 576.7459931875 56.9625278216)"/><path d="m0 0-120.438-69.534-120.437 69.534v139.07l120.437 69.534 120.438-69.534z" fill="none" stroke="#231f20" stroke-linejoin="round" stroke-miterlimit="10" stroke-width="8" transform="matrix(1.333333 0 0 -1.333333 576.7459931875 56.9625278216)"/><path d="m0 0-95.617-55.204-95.618 55.204v110.41l95.618 55.205 95.617-55.205z" fill="#c71e25" transform="matrix(1.333333 0 0 -1.333333 543.6522681276 37.8557325983)"/><path d="m0 0-120.438-69.534-120.437 69.534v139.07l120.437 69.534 120.438-69.534z" fill="#f5f5f5" transform="matrix(1.333333 0 0 -1.333333 410.6511671875 342.7133218216)"/><path d="m0 0-120.438-69.534-120.437 69.534v139.07l120.437 69.534 120.438-69.534z" fill="none" stroke="#231f20" stroke-linejoin="round" stroke-miterlimit="10" stroke-width="8" transform="matrix(1.333333 0 0 -1.333333 410.6511671875 342.7133218216)"/><path d="m0 0-95.617-55.204-95.618 55.204v110.41l95.618 55.205 95.617-55.205z" fill="#c71e25" transform="matrix(1.333333 0 0 -1.333333 377.5574421276 323.6065265983)"/></svg>