<svg height="308.33627" viewBox="0 0 311.19537 308.33627" width="311.19537" xmlns="http://www.w3.org/2000/svg" xmlns:xlink="http://www.w3.org/1999/xlink"><clipPath id="a"><path d="m0 300h300v-300h-300z"/></clipPath><g fill="#fff" transform="matrix(1.3333333 0 0 -1.3333333 -44.402622 354.16866)"><path d="m0 0-6.907-4.933-50.887 46.962 4.363 7.281 13.994-12.914 87.349 94.649 29.862 6.833-4.419-30.314-87.348-94.65z" transform="translate(101.892 54.0625)"/><g clip-path="url(#a)"><path d="m0 0-25.629-27.772s-4.416-.636-8.964 3.561c-4.548 4.196-4.266 8.648-4.266 8.648l25.629 27.773z" transform="translate(72.1644 62.1807)"/><path d="m0 0 10.053 6.239-18.657 23.442 38.414 4.15 1.734 34.457 22.403-14.066 35.487 17.186 4.746-39.734 26.798-6.716-22.185-13.186 15.945-28.411-30.957.945-2.706-38.642-24.357 18.687-5.471-10.492 42.111-63.102 6.44 76.617 62.587-21.949-38.566 61.081 46.132 21.026-56.652 19.033-3.414 65.747-54.942-38.757-45.561 32.559 2.597-54.324-74.551-3.209z" transform="translate(96.7475 153.3145)"/></g></g></svg>