<svg height="771.59332" viewBox="0 0 771.59534 771.59332" width="771.59534" xmlns="http://www.w3.org/2000/svg" xmlns:xlink="http://www.w3.org/1999/xlink"><clipPath id="a"><path d="m0 600h600v-600h-600z"/></clipPath><g clip-path="url(#a)" transform="matrix(1.3333333 0 0 -1.3333333 -14.202333 785.79691)"><path d="m0 0c-3.921 0-7.608 1.527-10.381 4.3l-269.667 269.666c-5.724 5.724-5.724 15.038 0 20.763l269.667 269.667c2.773 2.772 6.46 4.299 10.381 4.299 3.922 0 7.608-1.527 10.382-4.299l269.666-269.667c2.772-2.773 4.3-6.46 4.3-10.381 0-3.922-1.528-7.609-4.3-10.382l-269.666-269.666c-2.774-2.773-6.46-4.3-10.382-4.3" fill="#d1a016" transform="translate(300 15.6523)"/><g fill="#fff"><path d="m0 0c-5.037 0-10.074-1.921-13.917-5.764l-269.666-269.667c-7.687-7.686-7.687-20.147 0-27.834l269.666-269.666c3.843-3.843 8.88-5.764 13.917-5.764s10.073 1.921 13.917 5.764l269.666 269.666c7.687 7.687 7.687 20.148 0 27.834l-269.666 269.667c-3.844 3.843-8.88 5.764-13.917 5.764m0-10c2.586 0 5.018-1.007 6.846-2.835l269.666-269.667c3.775-3.775 3.775-9.917 0-13.691l-269.666-269.666c-1.828-1.829-4.26-2.836-6.846-2.836s-5.017 1.007-6.846 2.836l-269.666 269.666c-3.775 3.774-3.775 9.916 0 13.691l269.666 269.667c1.829 1.828 4.26 2.835 6.846 2.835" transform="translate(300 589.3477)"/><path d="m0 0 35.813-62.031 35.814-62.031h-71.627-71.627l35.814 62.031z" transform="translate(299.0156 382.6372)"/><path d="m0 0c0-14.914-12.09-27.003-27.003-27.003s-27.002 12.089-27.002 27.003c0 14.913 12.089 27.002 27.002 27.002s27.003-12.089 27.003-27.002" transform="translate(326.0186 441.6064)"/><path d="m0 0c-12.611 7.96-16.382 24.636-8.422 37.247 7.96 12.611 24.636 16.382 37.247 8.422 12.612-7.959 16.382-24.636 8.422-37.247s-24.636-16.382-37.247-8.422" transform="translate(402.9258 204.1699)"/><path d="m0 0c12.401 8.283 29.169 4.944 37.452-7.457s4.944-29.17-7.457-37.452c-12.402-8.283-29.17-4.945-37.453 7.457-8.282 12.401-4.943 29.17 7.458 37.452" transform="translate(167.6636 246.4287)"/></g><path d="m0 0c0-77.483-62.812-140.295-140.295-140.295s-140.295 62.812-140.295 140.295 62.812 140.295 140.295 140.295 140.295-62.812 140.295-140.295z" fill="none" stroke="#fff" stroke-miterlimit="10" stroke-width="16" transform="translate(439.3105 301.686)"/><path d="m0 0c0-42.295-34.287-76.583-76.583-76.583s-76.583 34.288-76.583 76.583c0 42.296 34.287 76.583 76.583 76.583s76.583-34.287 76.583-76.583z" fill="none" stroke="#fff" stroke-miterlimit="10" stroke-width="16" transform="translate(375.5986 301.686)"/></g></svg>