<svg width="500" height="500" viewBox="0 0 500 500" fill="currentColor" xmlns="http://www.w3.org/2000/svg">
  <path fill-rule="evenodd" clip-rule="evenodd"
    d="M411.814 41.5487C404.177 42.2677 403.086 42.6327 401.068 45.1467C396.425 50.9317 365.486 103.535 305.316 207.946C238.455 323.968 234.642 330.446 233.219 330.446C231.772 330.446 192.295 302.386 143.314 266.543L114.314 245.322L105.814 245.856C76.75 247.684 50.229 258.805 28.899 278.107C24.959 281.672 22.819 284.354 23.012 285.485C23.179 286.466 52.644 310.001 88.814 338.044C147.869 383.829 214.138 435.455 235.287 452.151C239.673 455.613 243.948 458.439 244.787 458.429C245.666 458.42 249.112 453.645 252.906 447.179C256.531 441.001 271.433 415.696 286.022 390.946C300.61 366.196 346.966 287.221 389.036 215.446C431.105 143.671 468.291 80.2917 471.67 74.6027C475.049 68.9137 477.814 63.6257 477.814 62.8517C477.814 60.4597 470.184 53.8877 463.063 50.1457C454.779 45.7927 443.658 42.6007 434.314 41.8937C430.464 41.6027 425.739 41.2267 423.814 41.0567C421.889 40.8877 416.489 41.1097 411.814 41.5487Z"
    fill="currentColor" />
</svg>