<svg width="500" height="500" viewBox="0 0 500 500" fill="currentColor" xmlns="http://www.w3.org/2000/svg">
  <path fill-rule="evenodd" clip-rule="evenodd"
    d="M402.915 38.907C400.456 39.8542 396.087 42.1137 393.205 43.9275C387.61 47.451 355.502 81.3511 302.59 139.602C284.643 159.36 268.861 175.676 267.517 175.859C265.915 176.079 252.215 160.838 227.665 131.525C187.167 83.1708 186.314 82.4171 172.05 82.4171C157.104 82.4171 126.063 94.134 102.227 108.773C88.3967 117.267 75.0857 127.625 75.0857 129.893C75.0857 130.911 100.173 161.612 130.836 198.117C161.498 234.623 186.586 265.305 186.586 266.299C186.586 267.905 142.935 317.233 66.6234 401.863C37.1288 434.572 38.1117 431.153 53.9506 445.962C70.2032 461.157 85.1721 465.495 99.7433 459.231C108.999 455.25 132.602 431.421 191.721 366.367C218.023 337.425 232.164 322.92 233.809 323.199C235.17 323.429 252.665 343.038 272.687 366.774C292.709 390.508 310.954 411.292 313.233 412.961C316.618 415.438 319.441 415.971 328.638 415.869C341.277 415.729 351.644 413.011 369.974 405.027C391.555 395.628 425.724 373.467 425.724 368.87C425.724 367.866 400.642 337.149 369.988 300.61C339.333 264.072 314.246 233.384 314.238 232.416C314.23 231.449 346.573 194.571 386.112 150.464C428.843 102.798 458 69.1151 458 67.4201C458 62.7955 440.957 46.2706 431.123 41.3586C421.547 36.5756 411.284 35.6842 402.915 38.907Z"
    fill="currentColor" />
</svg>