<svg width="1000" height="1000" viewBox="0 0 1000 1000" fill="currentColor" xmlns="http://www.w3.org/2000/svg">
  <path fill-rule="evenodd" clip-rule="evenodd"
    d="M929.69 61.3468C855.966 74.7148 694.646 181.261 512.248 337.051C501.428 346.293 491.953 353.855 491.194 353.855C490.435 353.855 488.264 352.228 486.368 350.239C468.993 332.009 415.194 281.823 388.507 258.952C265.38 153.429 150.435 96.1448 99.6854 115.016C95.2274 116.674 92.2024 118.88 86.3274 124.757C78.1064 132.98 74.0034 140.148 70.8134 151.855C68.1314 161.702 68.3514 182.993 71.2894 197.855C86.5044 274.808 164.466 391.645 290.821 526.855C296.732 533.18 301.979 539.101 302.48 540.012C303.203 541.324 300.148 545.373 287.763 559.512C177.232 685.698 76.4414 822.828 43.7624 891.485C33.1564 913.768 29.5314 929.794 33.6694 936.109C41.9004 948.672 79.3784 934.319 134.422 897.523C184.956 863.743 242.28 819.959 375.161 713.649C406.642 688.462 432.752 667.855 433.182 667.855C433.613 667.855 439.355 672.647 445.943 678.503C572.211 790.75 699.617 879.361 782.016 912.242C826.729 930.085 854.105 931.471 866.985 916.544C897.023 881.732 868.754 816.524 765.03 681.366C738.811 647.201 660.416 549.728 630.253 513.791C628.146 511.28 626.462 508.58 626.511 507.791C626.559 507.001 632.193 501.18 639.03 494.855C656.047 479.112 708.102 426.446 729.487 403.337C824.501 300.662 909.249 189.924 950.712 114.269C962.803 92.2078 969.678 73.1938 967.728 67.2088C965.683 60.9288 947.473 58.1218 929.69 61.3468Z"
    fill="currentColor" />
</svg>