<svg height="771.59369" viewBox="0 0 771.59534 771.59369" width="771.59534" xmlns="http://www.w3.org/2000/svg" xmlns:xlink="http://www.w3.org/1999/xlink"><clipPath id="a"><path d="m0 600h600v-600h-600z"/></clipPath><clipPath id="b"><path d="m286.083 583.583-269.667-269.667c-7.685-7.686-7.685-20.146 0-27.833l269.667-269.666c7.687-7.686 20.147-7.686 27.833 0l269.667 269.666c7.686 7.687 7.686 20.147 0 27.833l-269.667 269.667c-3.843 3.843-8.879 5.765-13.916 5.765-5.037 0-10.074-1.922-13.917-5.765"/></clipPath><g transform="matrix(1.3333333 0 0 -1.3333333 -14.2026 785.79731)"><g clip-path="url(#a)"><path d="m0 0c-3.922 0-7.608 1.527-10.382 4.3l-269.667 269.666c-5.723 5.724-5.723 15.039.001 20.763l269.666 269.667c2.774 2.772 6.46 4.3 10.382 4.3 3.921 0 7.607-1.528 10.38-4.3l269.668-269.667c2.772-2.773 4.3-6.46 4.3-10.381 0-3.922-1.528-7.609-4.3-10.382l-269.667-269.666c-2.774-2.773-6.46-4.3-10.381-4.3" fill="#7847a8" transform="translate(300.0002 15.6523)"/><path d="m0 0c-5.037 0-10.074-1.921-13.917-5.764l-269.666-269.667c-7.687-7.686-7.687-20.147 0-27.834l269.666-269.666c3.843-3.842 8.88-5.764 13.917-5.764s10.073 1.922 13.917 5.764l269.666 269.666c7.687 7.687 7.687 20.148 0 27.834l-269.666 269.667c-3.844 3.843-8.88 5.764-13.917 5.764m0-10c2.586 0 5.017-1.007 6.846-2.835l269.666-269.667c3.775-3.775 3.775-9.917 0-13.691l-269.666-269.667c-1.829-1.828-4.26-2.835-6.846-2.835s-5.018 1.007-6.846 2.836l-269.667 269.666c-3.774 3.774-3.774 9.916 0 13.691l269.667 269.667c1.828 1.828 4.26 2.835 6.846 2.835" fill="#fff" transform="translate(300.0002 589.3477)"/></g><g clip-path="url(#b)"><path d="m0 0 46.435-213.406c.61-3.462 4.17-5.559 7.495-4.415l53.345 18.357c3.59 1.236 7.367-1.305 7.574-5.096l10.976-200.27c.348-6.348 9.238-7.479 11.164-1.42l94.394 296.981c1.345 4.232-2.435 8.316-6.758 7.303l-71.009-16.647c-4.402-1.032-8.205 3.21-6.7 7.474l46.785 132.513c.645 1.825-42.549 59.735-42.549 59.735-1.083 1.412-2.76 2.239-4.539 2.239h-95.501c-2.156 0-4.129-1.212-5.103-3.135 0 0-46.225-78.993-46.009-80.213" fill="#fff" transform="translate(172.467 506)"/></g></g></svg>