<svg height="746.66663" viewBox="0 0 746.66663 746.66663" width="746.66663" xmlns="http://www.w3.org/2000/svg" xmlns:xlink="http://www.w3.org/1999/xlink"><clipPath id="a"><path d="m0 600h600v-600h-600z"/></clipPath><g clip-path="url(#a)" transform="matrix(1.3333333 0 0 -1.3333333 -26.666666 773.33331)"><path d="m0 0c-72.653 0-140.959 28.293-192.333 79.667s-79.667 119.68-79.667 192.333 28.293 140.959 79.667 192.333 119.68 79.667 192.333 79.667 140.959-28.293 192.333-79.667 79.667-119.68 79.667-192.333-28.293-140.959-79.667-192.333-119.68-79.667-192.333-79.667" fill="#202830" transform="translate(300 28)"/><g fill="#fff"><path d="m0 0c-37.793 0-74.464-7.405-108.993-22.011-33.345-14.102-63.287-34.29-88.997-59.999-25.709-25.71-45.897-55.652-59.999-88.997-14.606-34.529-22.011-71.2-22.011-108.993s7.405-74.464 22.011-108.993c14.102-33.345 34.29-63.287 59.999-88.997 25.71-25.709 55.652-45.896 88.997-59.999 34.529-14.606 71.2-22.011 108.993-22.011s74.464 7.405 108.993 22.011c33.345 14.103 63.287 34.29 88.997 59.999 25.709 25.71 45.897 55.652 59.999 88.997 14.606 34.529 22.011 71.2 22.011 108.993s-7.405 74.464-22.011 108.993c-14.102 33.345-34.29 63.287-59.999 88.997-25.71 25.709-55.652 45.897-88.997 59.999-34.529 14.606-71.2 22.011-108.993 22.011m0-16c145.803 0 264-118.196 264-264 0-145.803-118.197-264-264-264s-264 118.197-264 264c0 145.804 118.197 264 264 264" transform="translate(300 580)"/><path d="m0 0c-8.87 0-17.561.8-26 2.32 6.06 2.781 11.92 5.941 17.54 9.441 1.786 1.112 3.539 2.271 5.276 3.453 73.09 1.203 131.963 59.194 131.963 130.566 0 71.385-58.877 129.378-131.971 130.577-1.739 1.181-3.492 2.34-5.279 3.454-5.619 3.5-11.469 6.659-17.529 9.439 8.439 1.521 17.13 2.32 26 2.32 80.38 0 145.779-65.4 145.779-145.79 0-80.38-65.399-145.78-145.779-145.78m-45.83 7.38c-6.42-2.14-13.05-3.83-19.83-5.06-8.44-1.52-17.12-2.32-25.99-2.32-80.39 0-145.79 65.4-145.79 145.78 0 80.39 65.4 145.79 145.79 145.79 8.87 0 17.55-.799 25.99-2.32 6.78-1.229 13.41-2.92 19.83-5.06 6.019-1.99 11.87-4.379 17.51-7.11 48.75-23.61 82.45-73.59 82.45-131.3 0-57.7-33.7-107.679-82.45-131.29-5.64-2.729-11.491-5.12-17.51-7.11m45.83 296.19c-15.93 0-31.311-2.37-45.82-6.79-14.51 4.42-29.901 6.79-45.83 6.79-87.01 0-157.79-70.78-157.79-157.79 0-87 70.78-157.78 157.79-157.78 15.929 0 31.32 2.37 45.83 6.79 14.509-4.42 29.89-6.79 45.82-6.79 87 0 157.779 70.78 157.779 157.78 0 87.01-70.779 157.79-157.779 157.79" transform="translate(345.8301 154.2148)"/></g></g></svg>