<svg height="746.66663" viewBox="0 0 746.66663 746.66663" width="746.66663" xmlns="http://www.w3.org/2000/svg" xmlns:xlink="http://www.w3.org/1999/xlink"><clipPath id="a"><path d="m0 600h600v-600h-600z"/></clipPath><g clip-path="url(#a)" transform="matrix(1.3333333 0 0 -1.3333333 -26.666666 773.33331)"><path d="m0 0c-72.654 0-140.959 28.293-192.333 79.667s-79.667 119.68-79.667 192.333 28.293 140.959 79.667 192.333 119.679 79.667 192.333 79.667c72.653 0 140.959-28.293 192.333-79.667s79.667-119.68 79.667-192.333-28.293-140.959-79.667-192.333-119.68-79.667-192.333-79.667" fill="#7da82a" transform="translate(300 28)"/><g fill="#fff"><path d="m0 0c-37.793 0-74.463-7.405-108.994-22.011-33.344-14.102-63.286-34.29-88.996-59.999-25.709-25.71-45.896-55.652-60-88.997-14.605-34.529-22.01-71.2-22.01-108.993s7.405-74.464 22.01-108.993c14.104-33.345 34.291-63.287 60-88.997 25.71-25.709 55.652-45.896 88.996-59.999 34.531-14.606 71.201-22.011 108.994-22.011s74.464 7.405 108.993 22.011c33.345 14.103 63.287 34.29 88.997 59.999 25.709 25.71 45.897 55.652 59.999 88.997 14.606 34.529 22.011 71.2 22.011 108.993s-7.405 74.464-22.011 108.993c-14.102 33.345-34.29 63.287-59.999 88.997-25.71 25.709-55.652 45.897-88.997 59.999-34.529 14.606-71.2 22.011-108.993 22.011m0-16c145.803 0 264-118.196 264-264 0-145.803-118.197-264-264-264s-264 118.197-264 264c0 145.804 118.197 264 264 264" transform="translate(300 580)"/><path d="m0 0c-.423-4-4.892-6.179-8.264-3.987-24.283 15.779-85.571 80.677-11.571 162.809 73.487 81.563 169.567 37.861 265.702 95.873 2.907 1.755 6.665.165 7.401-3.15 13.134-59.172 20.961-187.976-39.103-247.223-73.5-72.5-133.5-40.5-166-29-1.5-18 4.501-41.921 9.501-58.421s-27.001-21.079-31.001-18.079-18.611 83.753 18.5 133c47.5 63.032 163 118 166.5 162.5-22.5-20-51.809-46.518-129-89.5-68.444-38.111-80.629-85.598-82.665-104.822" transform="translate(191.8486 205.1455)"/></g></g></svg>