<svg height="746.66663" viewBox="0 0 746.66663 746.66663" width="746.66663" xmlns="http://www.w3.org/2000/svg" xmlns:xlink="http://www.w3.org/1999/xlink"><clipPath id="a"><path d="m0 600h600v-600h-600z"/></clipPath><g clip-path="url(#a)" transform="matrix(1.3333333 0 0 -1.3333333 -26.667066 773.33331)"><path d="m0 0c-72.654 0-140.959 28.293-192.333 79.667s-79.667 119.68-79.667 192.333 28.293 140.959 79.667 192.333 119.679 79.667 192.333 79.667c72.653 0 140.959-28.293 192.333-79.667s79.667-119.68 79.667-192.333-28.293-140.959-79.667-192.333-119.68-79.667-192.333-79.667" fill="#eca610" transform="translate(300.0003 28)"/><g fill="#fff"><path d="m0 0c-37.793 0-74.464-7.405-108.994-22.011-33.344-14.102-63.286-34.29-88.996-59.999-25.709-25.71-45.897-55.652-60-88.997-14.605-34.529-22.01-71.2-22.01-108.993s7.405-74.464 22.01-108.993c14.103-33.345 34.291-63.287 60-88.997 25.71-25.709 55.652-45.896 88.996-59.999 34.53-14.606 71.201-22.011 108.994-22.011 37.792 0 74.463 7.405 108.993 22.011 33.344 14.103 63.287 34.29 88.996 59.999 25.71 25.71 45.897 55.652 60 88.997 14.606 34.529 22.011 71.2 22.011 108.993s-7.405 74.464-22.011 108.993c-14.103 33.345-34.29 63.287-60 88.997-25.709 25.709-55.652 45.897-88.996 59.999-34.53 14.606-71.201 22.011-108.993 22.011m0-16c145.803 0 264-118.196 264-264 0-145.803-118.197-264-264-264-145.804 0-264 118.197-264 264 0 145.804 118.196 264 264 264" transform="translate(300.0003 580)"/><path d="m0 0-9.044 27.255 23.505 9.418-23.504 9.418 9.042 27.252 61.997-36.673zm8.504-92.473-69.776 17.889 12.869 25.65 23.279-9.961-9.961 23.28 25.675 12.882zm-129.142-53.492-36.693 61.957 27.222 9.032 9.418-23.503 9.417 23.503 27.262-9.045zm-129.142 53.492 17.848 69.718 25.633-12.86-9.96-23.28 23.279 9.961 12.875-25.661zm-53.492 129.143 61.897 36.648 9.034-27.228-23.504-9.417 23.504-9.417-9.035-27.232zm53.492 129.142 69.674-17.875-12.874-25.658-23.279 9.961 9.96-23.279-25.634-12.86zm129.142 53.493 36.625-61.939-27.26-9.046-9.418 23.505-9.418-23.505-27.221 9.033zm66.4-155.106 14.078 32.9 26.922-15.926-7.78-30.284zm0-55.053 33.22 13.311 7.78-30.287-26.922-15.924zm-38.928-38.927 32.902-14.078-15.909-26.906-30.302 7.769zm-55.052 0 13.31-33.217-30.267-7.766-15.936 26.909zm-38.927 38.927-14.076-32.895-26.889 15.92 7.753 30.283zm0 55.053-33.212-13.307-7.753 30.281 26.889 15.921zm38.927 38.928-32.893 14.074 15.935 26.906 30.267-7.764zm55.052 0-13.308 33.213 30.302 7.767 15.908-26.902zm101.67 62.685-17.913-69.733-25.676 12.882 9.961 23.279-23.279-9.961-12.868 25.648zm89.802-123.776-93.182 46.752 32.831 98.947c.715 2.155.153 4.528-1.452 6.132-1.605 1.605-3.98 2.171-6.132 1.452l-98.947-32.831-46.752 93.183c-1.019 2.029-3.094 3.309-5.363 3.309-2.27 0-4.345-1.28-5.364-3.309l-46.752-93.183-98.947 32.831c-2.153.718-4.528.153-6.132-1.452-1.605-1.604-2.167-3.977-1.452-6.132l32.83-98.948-93.181-46.751c-2.03-1.018-3.31-3.094-3.31-5.363 0-2.27 1.28-4.345 3.31-5.363l93.181-46.751-32.83-98.949c-.715-2.154-.153-4.527 1.452-6.131 1.605-1.605 3.978-2.169 6.132-1.453l98.947 32.831 46.752-93.182c1.019-2.029 3.094-3.31 5.364-3.31 2.269 0 4.344 1.281 5.363 3.31l46.751 93.182 98.948-32.831c.619-.206 1.257-.305 1.889-.305 1.566 0 3.1.614 4.243 1.758 1.605 1.604 2.167 3.977 1.452 6.131l-32.832 98.948 93.183 46.752c2.029 1.018 3.309 3.093 3.309 5.363 0 2.269-1.28 4.345-3.309 5.363" transform="translate(420.6917 263.3271)"/></g></g></svg>