<svg height="370.50558" viewBox="0 0 304 370.50558" width="304" xmlns="http://www.w3.org/2000/svg" xmlns:xlink="http://www.w3.org/1999/xlink"><clipPath id="a"><path d="m0 300h300v-300h-300z"/></clipPath><g clip-path="url(#a)" fill="#fff" transform="matrix(1.3333333 0 0 -1.3333333 -48.000399 385.25306)"><path d="m0 0v-2.54c0-28.721-51.04-52-114-52s-114 23.279-114 52c0 .239.01.479.02.72v1.79c6.65-7.83 16.5-14.83 29.219-20.63 22.811-10.401 52.91-16.13 84.761-16.13 31.85 0 61.95 5.729 84.76 16.13 12.74 5.809 22.59 12.819 29.24 20.66" transform="translate(264.0003 65.6006)"/><path d="m0 0c0-28.72-51.04-52-114-52s-114 23.28-114 52c0 21.69 29.12 40.28 70.5 48.07v-58.07h87v58.07c41.38-7.79 70.5-26.38 70.5-48.07" transform="translate(264.0003 90.8096)"/><path d="m0 0h-42.79v-66.01h-67v66.01h-42.79l76.29 132.12z" transform="translate(226.2903 156.8198)"/></g></svg>