<svg height="771.59332" viewBox="0 0 771.59534 771.59332" width="771.59534" xmlns="http://www.w3.org/2000/svg" xmlns:xlink="http://www.w3.org/1999/xlink"><clipPath id="a"><path d="m0 600h600v-600h-600z"/></clipPath><g clip-path="url(#a)" transform="matrix(1.3333333 0 0 -1.3333333 -14.202333 785.79665)"><path d="m0 0c-3.921 0-7.608 1.527-10.381 4.3l-269.667 269.666c-5.724 5.724-5.724 15.039 0 20.763l269.667 269.667c2.773 2.772 6.46 4.299 10.381 4.299 3.922 0 7.608-1.527 10.382-4.299l269.666-269.667c5.723-5.724 5.723-15.039 0-20.763l-269.666-269.666c-2.774-2.773-6.46-4.3-10.382-4.3" fill="#694e3b" transform="translate(300 15.6523)"/><g fill="#fff"><path d="m0 0c-5.037 0-10.074-1.921-13.917-5.765l-269.666-269.666c-7.687-7.686-7.687-20.147 0-27.834l269.666-269.666c3.843-3.842 8.88-5.764 13.917-5.764s10.073 1.922 13.917 5.764l269.666 269.666c7.687 7.687 7.687 20.148 0 27.834l-269.666 269.666c-3.844 3.844-8.88 5.765-13.917 5.765m0-10c2.586 0 5.018-1.007 6.846-2.835l269.667-269.667c1.828-1.828 2.835-4.26 2.835-6.846s-1.007-5.016-2.836-6.845l-269.666-269.666c-1.828-1.829-4.26-2.836-6.846-2.836s-5.017 1.007-6.846 2.836l-269.666 269.666c-1.829 1.829-2.836 4.259-2.836 6.845s1.007 5.018 2.836 6.846l269.666 269.667c1.829 1.828 4.26 2.835 6.846 2.835" transform="translate(300 589.3475)"/><path d="m0 0-2.483 23.845c-.081.782 5.073 3.751 15.468 8.921 10.391 5.164 16.435 7.836 18.132 8.012 1.693.176 4.398-1.782 8.119-5.871 3.718-4.095 5.824-8.482 6.313-13.173l2.972-28.536c.082-.781-4.885-3.73-14.883-8.859-10.006-5.122-16.178-7.81-18.524-8.054-2.345-.244-5.259 1.762-8.725 6.006-3.475 4.251-5.602 10.153-6.389 17.709m19.184 271.088 3.338-32.054c.624-5.997.014-10.272-1.824-12.834-1.845-2.563-4.378-4.804-7.598-6.719l-38.619-23.779-6.042 4.902c6.222 8.552 8.872 17.255 7.949 26.117l-4.641 44.563c-.163 1.564 12.915 9.378 39.245 23.449 26.324 14.066 41.897 21.355 46.722 21.857 4.819.502 12.001-4.615 21.553-15.339 9.545-10.73 14.645-19.219 15.296-25.474l7.043-67.625c.707-6.78-4.665-16.557-16.109-29.338-11.448-12.788-23-23.869-34.669-33.246l-17.501-14.072 1.14-10.945c.842-8.08 2.868-14.26 6.078-18.531 3.212-4.278 6.274-6.527 9.199-6.748l3.991-.374.896-8.599c-23.735-17.487-36.514-26.327-38.334-26.517-1.826-.19-6.23 2.248-13.209 7.318-6.986 5.065-10.758 10.338-11.327 15.811l-5.496 52.773c-.299 2.864 7.548 10.331 23.548 22.406 15.993 12.069 27.558 21.837 34.684 29.296 7.127 7.46 10.445 13.535 9.957 18.225l-4.723 45.345c-1.194 11.464-3.14 19.361-5.827 23.694-2.691 4.326-6.576 6.23-11.657 5.701-5.082-.529-9.44-3.62-13.063-9.263" transform="translate(264.9463 153.5556)"/></g></g></svg>