<svg height="771.59332" viewBox="0 0 771.59534 771.59332" width="771.59534" xmlns="http://www.w3.org/2000/svg" xmlns:xlink="http://www.w3.org/1999/xlink"><clipPath id="a"><path d="m0 600h600v-600h-600z"/></clipPath><g clip-path="url(#a)" transform="matrix(1.3333333 0 0 -1.3333333 -14.202333 785.79665)"><path d="m0 0c-3.921 0-7.608 1.527-10.381 4.3l-269.667 269.666c-5.723 5.724-5.723 15.039 0 20.763l269.667 269.667c2.773 2.772 6.46 4.299 10.381 4.299 3.922 0 7.608-1.527 10.382-4.299l269.666-269.667c5.723-5.724 5.723-15.039 0-20.763l-269.666-269.666c-2.774-2.773-6.46-4.3-10.382-4.3" fill="#48484a" transform="translate(300 15.6523)"/><g fill="#fff"><path d="m0 0c-5.037 0-10.074-1.921-13.917-5.765l-269.666-269.666c-7.687-7.686-7.687-20.147 0-27.834l269.666-269.666c3.843-3.842 8.88-5.764 13.917-5.764s10.073 1.922 13.917 5.764l269.666 269.666c7.687 7.687 7.687 20.148 0 27.834l-269.666 269.666c-3.844 3.844-8.88 5.765-13.917 5.765m0-10c2.586 0 5.018-1.007 6.846-2.835l269.667-269.667c1.828-1.828 2.835-4.26 2.835-6.846s-1.007-5.016-2.836-6.845l-269.666-269.666c-1.828-1.829-4.26-2.836-6.846-2.836s-5.017 1.007-6.846 2.836l-269.666 269.666c-1.829 1.829-2.836 4.259-2.836 6.845s1.007 5.018 2.836 6.846l269.666 269.667c1.829 1.828 4.26 2.835 6.846 2.835" transform="translate(300 589.3475)"/><path d="m0 0h-137.893c-3.497 0-5.528 3.951-3.484 6.79 5.243 7.284 12.227 20.01 12.227 36.115 0 16.106-6.984 28.831-12.227 36.116-2.044 2.838-.013 6.79 3.484 6.79h137.893z" transform="translate(395.4141 257.0946)"/><path d="m0 0h-49.732c-3.498 0-5.528 3.951-3.485 6.79 5.243 7.284 12.228 20.01 12.228 36.115 0 16.106-6.985 28.831-12.228 36.116-2.043 2.838-.013 6.79 3.485 6.79h49.732c3.843 0 7.516-1.553 10.2-4.303 5.711-5.853 14.217-18.024 14.217-38.603s-8.506-32.75-14.217-38.602c-2.684-2.75-6.357-4.303-10.2-4.303" transform="translate(209.8921 257.0946)"/><path d="m0 0h-10.508c-3.497 0-5.528 3.951-3.485 6.79 5.244 7.284 12.228 20.01 12.228 36.115 0 16.106-6.984 28.831-12.228 36.116-2.043 2.838-.012 6.79 3.485 6.79h10.508c3.843 0 7.515-1.553 10.199-4.303 5.712-5.853 14.218-18.024 14.218-38.603s-8.506-32.75-14.218-38.602c-2.684-2.75-6.356-4.303-10.199-4.303" transform="translate(105.8447 257.0946)"/><path d="m0 0 129.023 92.403c2.679 1.919 2.679 5.904 0 7.823l-129.023 92.403c-2.637 1.889-6.304.004-6.304-3.238v-186.153c0-3.242 3.667-5.127 6.304-3.238" transform="translate(377.9307 203.6855)"/></g></g></svg>