<svg height="303.27045" viewBox="0 0 254.06532 303.27045" width="254.06532" xmlns="http://www.w3.org/2000/svg" xmlns:xlink="http://www.w3.org/1999/xlink"><clipPath id="a"><path d="m0 300h300v-300h-300z"/></clipPath><g clip-path="url(#a)" fill="#fff" transform="matrix(1.3333333 0 0 -1.3333333 -70.401065 346.75082)"><path d="m0 0-16.316 129.236c.024-.02.046-.036.071-.055 10.503-8.434 26.666-6.715 42.221-15.298 13.848-7.645 27.632-19.576 54.168-56.893s33.279-54.255 35.954-69.845c3-17.511-3.931-32.214.587-44.904.01-.029.018-.055.028-.085zm127.398-49.345c-.273 13.057 6.858 25.019 3.338 46.368-3.52 21.35-22.37 48.231-37.39 69.354-15.021 21.123-34.222 47.754-53.233 58.089-19.009 10.335-32.65 7.527-44.893 12.072-12.243 4.546-18.267 17.489-22.491 14.485-2.374-1.687-1.914-5.717.812-10.415l18.177-143.989 2.368-3.331 130.038-64.446c3.543-4.117 7.199-5.875 9.571-4.188 4.225 3.004-6.023 12.945-6.297 26.001" transform="translate(83.5189 108.5928)"/><path d="m0 0 3.535-15.243-35.718-24.883-5.648 24.342-21.138 13.327 35.718 24.884 13.238-8.344 96.054 68.182-13.921 8.552 59.46 13.228-32.018-51.819-3.507 15.957z" transform="translate(111.7698 118.2012)"/></g></svg>