<svg height="308.22266" viewBox="0 0 314.77457 308.22266" width="314.77457" xmlns="http://www.w3.org/2000/svg" xmlns:xlink="http://www.w3.org/1999/xlink"><clipPath id="a"><path d="m0 300h300v-300h-300z"/></clipPath><g clip-path="url(#a)" fill="#fff" transform="matrix(1.3333333 0 0 -1.3333333 -42.612819 354.11119)"><path d="m0 0c.49 1.955-.669 3.942-2.609 4.487-27.946 7.849-88.191 9.827-107.665 19.404-19.474-9.577-79.719-11.555-107.665-19.404-1.94-.545-3.099-2.532-2.609-4.487 14.509-57.853-13.349-87.76-6.732-129.802 7.503-47.677 92.543-55.038 117.006-77.474 24.462 22.436 109.503 29.797 117.006 77.474 6.617 42.042-21.242 71.949-6.732 129.802" fill="#fff" transform="translate(260.2741 241.6924)"/></g></svg>