<svg height="400" viewBox="0 0 400 400" width="400" fill="currentColor" xmlns="http://www.w3.org/2000/svg"
  xmlns:xlink="http://www.w3.org/1999/xlink">
  <clipPath id="a">
    <path d="m0 300h300v-300h-300z" />
  </clipPath>
  <g clip-path="url(#a)" fill="currentColor" transform="matrix(1.3333333 0 0 -1.3333333 0 400)">
    <path
      d="m0 0c-1.537 29.632-13.804 57.273-34.94 78.411-22.642 22.641-52.748 35.113-84.767 35.113s-62.121-12.472-84.762-35.113c-12.552-12.553-21.97-27.399-27.876-43.593l34.786 35.466 9.642-34.622c14.131 22.859 39.419 38.124 68.21 38.124 38.353 0 70.493-27.083 78.314-63.128l-16.708 4.302 21.265-76.343 55.491 56.579z"
      transform="translate(269.9258 156.132)" />
    <path
      d="m0 0-9.642 34.621c-14.127-22.864-39.42-38.129-68.215-38.129-38.353 0-70.493 27.083-78.314 63.128l16.706-4.303-21.26 76.345-55.494-56.576 18.655-4.805c1.536-29.634 13.802-57.275 34.94-78.413 22.641-22.645 52.748-35.113 84.767-35.113s62.121 12.468 84.761 35.113c12.557 12.558 21.986 27.404 27.886 43.603z"
      transform="translate(227.6387 73.5891)" />
  </g>
</svg>