<svg height="771.59332" viewBox="0 0 771.59467 771.59332" width="771.59467" xmlns="http://www.w3.org/2000/svg" xmlns:xlink="http://www.w3.org/1999/xlink"><clipPath id="a"><path d="m0 600h600v-600h-600z"/></clipPath><g clip-path="url(#a)" transform="matrix(1.3333333 0 0 -1.3333333 -14.2032 785.79665)"><path d="m0 0c-3.922 0-7.608 1.527-10.382 4.3l-269.666 269.666c-5.723 5.724-5.723 15.039 0 20.763l269.666 269.667c2.774 2.772 6.46 4.299 10.382 4.299s7.608-1.527 10.382-4.299l269.666-269.667c5.723-5.724 5.723-15.039 0-20.763l-269.666-269.666c-2.774-2.773-6.46-4.3-10.382-4.3" fill="#5996d6" transform="translate(299.9999 15.6523)"/><g fill="#fff"><path d="m0 0c-5.036 0-10.073-1.921-13.916-5.765l-269.667-269.666c-7.686-7.686-7.686-20.147 0-27.834l269.667-269.666c3.843-3.842 8.88-5.764 13.916-5.764 5.037 0 10.074 1.922 13.917 5.764l269.667 269.666c7.686 7.687 7.686 20.148 0 27.834l-269.667 269.666c-3.843 3.844-8.88 5.765-13.917 5.765m0-10c2.586 0 5.018-1.007 6.846-2.835l269.667-269.667c1.828-1.828 2.836-4.26 2.836-6.846s-1.008-5.016-2.836-6.845l-269.667-269.666c-1.828-1.829-4.26-2.836-6.846-2.836s-5.017 1.007-6.846 2.836l-269.666 269.666c-3.775 3.774-3.775 9.917 0 13.691l269.666 269.667c1.829 1.828 4.26 2.835 6.846 2.835" transform="translate(299.9999 589.3475)"/><path d="m0 0s-24.844-6.475-64.496 12.496c-26.241-11.928-50.147-16.526-77.02-11.928-18.58 3.179-36.426 8.892-54.627 13.902-27.542 7.582-52.712 13.072-55.79 17.792-5.112 7.839-17.338 49.254 3.749 99.852 12.279 29.462 23.541 52.356 25.219 64.41.594 4.27 1.363 36.465 48.734 53.164 47.37 16.7 78.382 10.906 86.22-4.089s6.803-51.618-2.045-50.779c-13.878 1.318-27.564-5.378-40.981-4.014-13.418 1.363-28.881 10.781-32.971 8.25-4.09-2.532-7.441-17.951-9.542-28.926-3.093-16.16 10.907-40.818 11.928-59.985 6.475 5.612 25.697 15.344 49.074 16.176 21.185.753 29.309-4.43 44.644-19.766 5.112 4.168 29.684 22.119 71.261 20.415.246-27.108 6.012-47.622 6.012-77.46 0-46.199-9.369-49.51-9.369-49.51" transform="translate(425.4569 193.997)"/></g></g></svg>