<svg height="771.59332" viewBox="0 0 771.59534 771.59332" width="771.59534" xmlns="http://www.w3.org/2000/svg" xmlns:xlink="http://www.w3.org/1999/xlink"><clipPath id="a"><path d="m0 600h600v-600h-600z"/></clipPath><g clip-path="url(#a)" transform="matrix(1.3333333 0 0 -1.3333333 -14.2026 785.79665)"><path d="m0 0c-3.922 0-7.608 1.527-10.382 4.3l-269.666 269.666c-5.723 5.724-5.723 15.039 0 20.763l269.666 269.667c2.774 2.772 6.46 4.299 10.382 4.299s7.608-1.527 10.382-4.299l269.666-269.667c5.723-5.724 5.723-15.039 0-20.763l-269.666-269.666c-2.774-2.773-6.46-4.3-10.382-4.3" fill="#2e4067" transform="translate(300.0002 15.6523)"/><g fill="#fff"><path d="m0 0c-5.037 0-10.074-1.921-13.917-5.765l-269.666-269.666c-7.687-7.686-7.687-20.147 0-27.834l269.666-269.666c3.843-3.842 8.88-5.764 13.917-5.764s10.073 1.922 13.917 5.764l269.666 269.666c7.687 7.687 7.687 20.148 0 27.834l-269.666 269.666c-3.844 3.844-8.88 5.765-13.917 5.765m0-10c2.586 0 5.017-1.007 6.846-2.835l269.667-269.667c1.828-1.828 2.835-4.26 2.835-6.846s-1.007-5.016-2.836-6.845l-269.666-269.666c-1.829-1.829-4.26-2.836-6.846-2.836s-5.018 1.007-6.846 2.836l-269.667 269.666c-3.774 3.774-3.774 9.917 0 13.691l269.667 269.667c1.828 1.828 4.26 2.835 6.846 2.835" transform="translate(300.0002 589.3475)"/><path d="m0 0-21.821-14.767 11.594-23.745-25.67-.225-5.547-26.422-18.194 15.834-17.13-14.06-2.968 28.519-28.407 5.382 21.259 21.567-12.796 25.058 24.567 1.791 17.957 31.158 18.914-27.007 21.828 8.715-8.733-20.144zm44.584 8.896-39.938-27.027 21.222-43.457-46.982-.413-10.151-48.355-33.298 28.978-31.349-25.73-5.434 52.192-51.988 9.851 38.906 39.471-23.419 45.859 44.961 3.278 32.865 57.025 34.615-49.426 39.949 15.949-15.983-36.866zm22.291 100.966-81.721-22.496-55.461 72.343-39.277-93.043-90.718 1.146 52.798-66.207-81.219-66.757 104.32-16.577 2.576-87.396 62.198 51.543 50.264-45.255.696 76.617 82.032-11.768-33.066 73.085 74.182 37.024-79.529 34.269z" transform="translate(357.3215 312.5732)"/></g></g></svg>