<svg fill="none" height="512" viewBox="0 0 512 512" width="512" xmlns="http://www.w3.org/2000/svg" xmlns:xlink="http://www.w3.org/1999/xlink"><mask id="a" fill="#000" height="449" maskUnits="userSpaceOnUse" width="337" x="88" y="32"><path d="m88 32h337v449h-337z" fill="#fff"/><path clip-rule="evenodd" d="m230.511 38.6173c-27.488 9.4502-99.498 47.8057-112.536 59.9411-7.738 7.2006-9.89 12.5086-15.473 38.1906-2.315 10.654-5.7345 25.363-7.5964 32.688-7.8986 31.084-6.3973 55.827 5.5104 90.797 6.616 19.431 7.048 29.927 2.149 52.058-1.915 8.656-3.5238 16.542-3.5701 17.523-.0463.983 14.9931 16.416 33.4241 34.3l33.51 32.512v32.518c0 35.203.78 37.675 14.013 44.474 6.617 3.4 7.543 3.257 14.871-2.295l7.813-5.92 7.241 5.755c8.997 7.153 9.853 7.145 19.472-.145l7.818-5.925 6.882 7.136c8.681 9.002 15.412 9.031 24.025.101l6.782-7.034 8.635 5.824c10.662 7.188 10.825 7.186 19.664-.201l7.204-6.024 6.471 5.055c7.603 5.942 14.766 4.92 23.802-3.399 6.083-5.603 6.142-6.012 4.987-35.792l-1.168-30.123 33.719-33.057 33.72-33.061-2.966-26.498c-2.579-23.036-2.467-27.891.862-37.142 6.264-17.405 13.185-53.203 13.224-68.421.044-15.77-15.558-86.883-20.895-95.255-5.338-8.3684-12.8-14.47-30.081-24.5885-31.099-18.2129-62.718-32.9149-94.982-44.169-20.506-7.1524-20.693-5.1718-.227 2.4237 23.886 8.8668 57.683 25.7842 93.159 46.6363 33.147 19.4815 30.378 14.5735 43.475 77.0765 6.456 30.799 7.014 36.501 4.572 46.617-3.136 12.99-5.749 15.695-10.989 11.375-1.983-1.637-3.892-2.547-4.238-2.027-.346.523-2.239 3.037-4.206 5.586-3.371 4.366-3.256 4.465 1.967 1.7 4.503-2.385 6.212-2.266 9.139.642 3.17 3.152 3.143 4.024-.232 7.38-2.108 2.092-4.85 3.804-6.093 3.804-1.245 0-2.227 2.452-2.183 5.447l.083 5.448 4.791-5.716c5.41-6.453 5.851-5.84 2.361 3.283-1.338 3.496-3.453 5.731-4.698 4.966-3.629-2.228-5.757 8.237-2.474 12.167 2.452 2.937 2.279 3.303-.984 2.058-2.754-1.051-4.665.312-6.249 4.458-1.258 3.283-4.258 6.721-6.668 7.639-3.482 1.329-3.707 2.089-1.084 3.697 2.534 1.557 1.796 3.005-3.19 6.252-3.571 2.324-5.966 4.745-5.325 5.385 1.652 1.641 18.482-9.01 18.482-11.7 0-1.223.865-2.223 1.925-2.223 1.058 0 3.836 11.012 6.174 24.472 4.652 26.787 3.246 33.532-5.969 28.634-2.566-1.365-5.515-1.963-6.548-1.329-1.036.637-2.052-1.109-2.262-3.879-.407-5.349-5.505-12.298-5.505-7.504 0 1.444-2.196 3.194-4.877 3.891-3.104.807-4.289.32-3.256-1.338 1.041-1.674.098-2.027-2.634-.986-2.34.894-4.777 1.622-5.418 1.622-.638 0-.492 1.078.327 2.395.824 1.324-.056 1.804-1.974 1.073-2.342-.894-4.752 1.883-7.455 8.593-5.247 13.029-13.984 42.776-15.49 52.73-1.109 7.339-5.527 13.727-5.527 7.991 0-1.41-1.645-2.565-3.656-2.565-2.895 0-3.694 3.649-3.848 17.555-.397 36.098-1.689 55.5-3.836 57.633-1.328 1.32-4.718-.104-8.464-3.557-5.564-5.125-6.409-8.203-7.701-28.004-1.406-21.552-4.055-29.278-13.153-38.351-3.59-3.578-4.291 4.872-4.036 48.598.076 12.985-.314 23.607-.862 23.607-.551 0-5.225-2.416-10.389-5.368l-9.39-5.37-.142-23.002c-.129-21.022-.621-23.37-5.717-27.264-9.97-7.624-9.624-8.976-10.355 40.423-.178 11.986-.546 22.823-.817 24.082-.273 1.262-4.26-1.334-8.863-5.767-4.826-4.647-9.868-7.489-11.908-6.709-3.012 1.147-3.075.387-.424-5.129 1.782-3.707 2.864-13.208 2.53-22.215-.792-21.331-.968-22.297-3.763-20.581-1.34.823-2.437-.683-2.437-3.346 0-7.627-4.336-8.31-5.8-.913-.729 3.676-1.64 18.932-2.025 33.905-.775 29.949-1.641 31.254-13.921 20.986l-7.499-6.269-.068-25.813c-.066-25.201-.234-25.976-7.08-32.646l-7.013-6.833-.334 36.999c-.186 20.351-.856 37.518-1.489 38.147-.637.632-4.153-1.077-7.816-3.799-6.619-4.912-6.665-5.157-7.075-36.37-.341-26.195-1.486-35.016-6.882-53.004-3.561-11.866-7.014-23.481-7.674-25.813-.661-2.332-2.637-4.237-4.394-4.237-1.758 0-4.548-1.622-6.205-3.605s-4.107-2.933-5.445-2.112c-1.338.823-3.229.218-4.199-1.344-.972-1.561-1.92 1.247-2.11 6.24-.188 4.993 1.004 9.927 2.649 10.966s1.893 1.893.553 1.903c-1.34.007-8.954-5.838-16.916-12.993l-14.481-13.007 3.064-19.871c4.233-27.472 4.316-27.624 12.139-22.249 11.676 8.024 13.487 8.75 11.956 4.789-1.067-2.767-.029-3.387 4.299-2.566 4.959.941 5.513.343 4.219-4.572-.819-3.111-2.428-6.765-3.576-8.121-1.15-1.356-3.662-4.644-5.583-7.307-3.219-4.46-3.502-4.494-3.573-.446-.043 2.417 1.199 6.775 2.762 9.685 1.647 3.068-.909 1.458-6.093-3.835-8.844-9.034-12.782-17.646-5.218-11.409 2.042 1.685 4.494 2.288 5.447 1.341.953-.946-.975-3.75-4.284-6.229-3.31-2.48-6.634-3.519-7.387-2.306-1.226 1.969-10.972-11.67-10.465-14.646.112-.666-.663-3.477-1.723-6.249-1.06-2.77-3.748-12.247-5.9706-21.06-4.0334-15.976-4.0236-16.129 3.541-50.634 9.9266-45.283 13.9666-58.687 19.0406-63.15 12.656-11.1375 83.864-48.6745 118.722-62.5848 19.17-7.6488 14.578-9.3098-6.093-2.2009zm169.376 176.8237c-.829 1.332-.344 2.421 1.075 2.421 1.418 0 2.58-1.089 2.58-2.421s-.482-2.421-1.074-2.421-1.753 1.089-2.581 2.421zm-26.808 16.949c-.828 1.331-.409 2.421.931 2.421s3.115-1.09 3.943-2.421c.829-1.332.41-2.422-.931-2.422-1.34 0-3.114 1.09-3.943 2.422zm28.026 1.21c0 1.998.98 3.632 2.177 3.632 1.196 0 2.807-1.634 3.58-3.632.853-2.213.002-3.632-2.177-3.632-1.969 0-3.58 1.635-3.58 3.632zm-19.496 18.017c0 1.254 1.084 2.944 2.41 3.758 1.379.847 1.789-.124.958-2.278-1.621-4.194-3.368-4.962-3.368-1.48zm-7.348 6.801c-.032 3.628-.383 3.715-2.435.606-1.686-2.555-1.932-1.119-.831 4.842 1.914 10.351 1.741 10.129 6.422 8.344 4.618-1.76 7.687-8.525 3.495-7.709-1.657.322-2.873-1.821-2.766-4.872.107-2.995-.714-5.448-1.828-5.448-1.111 0-2.037 1.906-2.057 4.237zm-210.148 2.315c-2.339 2.584-4.937 9.671-5.776 15.748l-1.525 11.051 11.274 6.564c23.863 13.896 49.823 20.685 55.92 14.627 4.994-4.961 11.986-29.455 10.097-35.37-2.759-8.637-19.847-14.954-43.804-16.189-19.472-1.005-22.411-.603-26.186 3.569zm140.763.879c-27.69 4.596-31.363 7.392-27.595 21.002 1.384 5.003 4.611 13.184 7.167 18.177 4.138 8.08 5.669 9.08 13.877 9.08 10.952 0 35.856-8.037 43.908-14.17 7.823-5.961 8.981-27.973 1.745-33.237-5.135-3.736-19.816-4.055-39.102-.852zm-183.986 20.47c2.575 3.082 2.424 3.438-.922 2.162-2.198-.84-3.999-2.499-3.999-3.688 0-3.114 1.411-2.675 4.921 1.526zm123.135 29.605c-3.941 6.324-7.28 12.045-7.419 12.711s-2.176 7.584-4.53 15.373c-5.355 17.721-4.57 23.888 3.309 26.053 15.912 4.373 44.496.644 47.118-6.143 2.81-7.276-10.642-44.193-20.103-55.169-5.988-6.949-10.73-5.096-18.375 7.175zm-121.963 15.133c-.829 1.331-.344 2.421 1.074 2.421 1.419 0 2.581-1.09 2.581-2.421 0-1.332-.482-2.422-1.074-2.422-.593 0-1.753 1.09-2.581 2.422zm252.372 16.91c6.531-1.862 6.946-1.637 4.694 2.54-1.574 2.925-3.921 4.029-6.485 3.05-2.695-1.026-3.439-.598-2.257 1.301 1.002 1.612.388 2.83-1.428 2.83-2.081-.002-3.292-3.581-3.485-10.29-.163-5.659.176-7.385.751-3.838.953 5.874 1.684 6.266 8.21 4.407zm20.201-3.489c-.795 2.055-1.967 3.218-2.605 2.583-.639-.634-.439-2.317.446-3.736 2.403-3.864 3.806-3.114 2.159 1.153zm-198.275 112.32c1.424 7.729.914 10.497-2.498 13.564-3.982 3.581-4.26 3.431-3.923-2.118.197-3.286 1.184-5.47 2.188-4.852 1.004.617 1.828-.034 1.828-1.444 0-1.409-.999-2.564-2.223-2.564-1.221 0-1.852-1.905-1.403-4.237.448-2.332.899-5.78 1.001-7.668.329-6.015 3.183-.727 5.03 9.319zm71.421 9.879c.687 2.61-.765 6.3-3.414 8.683-4.453 4.002-4.611 3.801-4.611-5.84 0-7.567.826-9.668 3.414-8.681 1.879.715 3.953 3.344 4.611 5.838zm-39.707 1.182c0 3.329-1.097 6.053-2.437 6.053-2.722 0-3.341-7.981-.812-10.491 2.686-2.671 3.249-1.901 3.249 4.438z" fill="#000" fill-rule="evenodd"/></mask><path d="m0 0h512v512h-512z" fill="#111110"/><g clip-rule="evenodd" fill-rule="evenodd"><path d="m230.511 38.6173c-27.488 9.4502-99.498 47.8057-112.536 59.9411-7.738 7.2006-9.89 12.5086-15.473 38.1906-2.315 10.654-5.7345 25.363-7.5964 32.688-7.8986 31.084-6.3973 55.827 5.5104 90.797 6.616 19.431 7.048 29.927 2.149 52.058-1.915 8.656-3.5238 16.542-3.5701 17.523-.0463.983 14.9931 16.416 33.4241 34.3l33.51 32.512v32.518c0 35.203.78 37.675 14.013 44.474 6.617 3.4 7.543 3.257 14.871-2.295l7.813-5.92 7.241 5.755c8.997 7.153 9.853 7.145 19.472-.145l7.818-5.925 6.882 7.136c8.681 9.002 15.412 9.031 24.025.101l6.782-7.034 8.635 5.824c10.662 7.188 10.825 7.186 19.664-.201l7.204-6.024 6.471 5.055c7.603 5.942 14.766 4.92 23.802-3.399 6.083-5.603 6.142-6.012 4.987-35.792l-1.168-30.123 33.719-33.057 33.72-33.061-2.966-26.498c-2.579-23.036-2.467-27.891.862-37.142 6.264-17.405 13.185-53.203 13.224-68.421.044-15.77-15.558-86.883-20.895-95.255-5.338-8.3684-12.8-14.47-30.081-24.5885-31.099-18.2129-62.718-32.9149-94.982-44.169-20.506-7.1524-20.693-5.1718-.227 2.4237 23.886 8.8668 57.683 25.7842 93.159 46.6363 33.147 19.4815 30.378 14.5735 43.475 77.0765 6.456 30.799 7.014 36.501 4.572 46.617-3.136 12.99-5.749 15.695-10.989 11.375-1.983-1.637-3.892-2.547-4.238-2.027-.346.523-2.239 3.037-4.206 5.586-3.371 4.366-3.256 4.465 1.967 1.7 4.503-2.385 6.212-2.266 9.139.642 3.17 3.152 3.143 4.024-.232 7.38-2.108 2.092-4.85 3.804-6.093 3.804-1.245 0-2.227 2.452-2.183 5.447l.083 5.448 4.791-5.716c5.41-6.453 5.851-5.84 2.361 3.283-1.338 3.496-3.453 5.731-4.698 4.966-3.629-2.228-5.757 8.237-2.474 12.167 2.452 2.937 2.279 3.303-.984 2.058-2.754-1.051-4.665.312-6.249 4.458-1.258 3.283-4.258 6.721-6.668 7.639-3.482 1.329-3.707 2.089-1.084 3.697 2.534 1.557 1.796 3.005-3.19 6.252-3.571 2.324-5.966 4.745-5.325 5.385 1.652 1.641 18.482-9.01 18.482-11.7 0-1.223.865-2.223 1.925-2.223 1.058 0 3.836 11.012 6.174 24.472 4.652 26.787 3.246 33.532-5.969 28.634-2.566-1.365-5.515-1.963-6.548-1.329-1.036.637-2.052-1.109-2.262-3.879-.407-5.349-5.505-12.298-5.505-7.504 0 1.444-2.196 3.194-4.877 3.891-3.104.807-4.289.32-3.256-1.338 1.041-1.674.098-2.027-2.634-.986-2.34.894-4.777 1.622-5.418 1.622-.638 0-.492 1.078.327 2.395.824 1.324-.056 1.804-1.974 1.073-2.342-.894-4.752 1.883-7.455 8.593-5.247 13.029-13.984 42.776-15.49 52.73-1.109 7.339-5.527 13.727-5.527 7.991 0-1.41-1.645-2.565-3.656-2.565-2.895 0-3.694 3.649-3.848 17.555-.397 36.098-1.689 55.5-3.836 57.633-1.328 1.32-4.718-.104-8.464-3.557-5.564-5.125-6.409-8.203-7.701-28.004-1.406-21.552-4.055-29.278-13.153-38.351-3.59-3.578-4.291 4.872-4.036 48.598.076 12.985-.314 23.607-.862 23.607-.551 0-5.225-2.416-10.389-5.368l-9.39-5.37-.142-23.002c-.129-21.022-.621-23.37-5.717-27.264-9.97-7.624-9.624-8.976-10.355 40.423-.178 11.986-.546 22.823-.817 24.082-.273 1.262-4.26-1.334-8.863-5.767-4.826-4.647-9.868-7.489-11.908-6.709-3.012 1.147-3.075.387-.424-5.129 1.782-3.707 2.864-13.208 2.53-22.215-.792-21.331-.968-22.297-3.763-20.581-1.34.823-2.437-.683-2.437-3.346 0-7.627-4.336-8.31-5.8-.913-.729 3.676-1.64 18.932-2.025 33.905-.775 29.949-1.641 31.254-13.921 20.986l-7.499-6.269-.068-25.813c-.066-25.201-.234-25.976-7.08-32.646l-7.013-6.833-.334 36.999c-.186 20.351-.856 37.518-1.489 38.147-.637.632-4.153-1.077-7.816-3.799-6.619-4.912-6.665-5.157-7.075-36.37-.341-26.195-1.486-35.016-6.882-53.004-3.561-11.866-7.014-23.481-7.674-25.813-.661-2.332-2.637-4.237-4.394-4.237-1.758 0-4.548-1.622-6.205-3.605s-4.107-2.933-5.445-2.112c-1.338.823-3.229.218-4.199-1.344-.972-1.561-1.92 1.247-2.11 6.24-.188 4.993 1.004 9.927 2.649 10.966s1.893 1.893.553 1.903c-1.34.007-8.954-5.838-16.916-12.993l-14.481-13.007 3.064-19.871c4.233-27.472 4.316-27.624 12.139-22.249 11.676 8.024 13.487 8.75 11.956 4.789-1.067-2.767-.029-3.387 4.299-2.566 4.959.941 5.513.343 4.219-4.572-.819-3.111-2.428-6.765-3.576-8.121-1.15-1.356-3.662-4.644-5.583-7.307-3.219-4.46-3.502-4.494-3.573-.446-.043 2.417 1.199 6.775 2.762 9.685 1.647 3.068-.909 1.458-6.093-3.835-8.844-9.034-12.782-17.646-5.218-11.409 2.042 1.685 4.494 2.288 5.447 1.341.953-.946-.975-3.75-4.284-6.229-3.31-2.48-6.634-3.519-7.387-2.306-1.226 1.969-10.972-11.67-10.465-14.646.112-.666-.663-3.477-1.723-6.249-1.06-2.77-3.748-12.247-5.9706-21.06-4.0334-15.976-4.0236-16.129 3.541-50.634 9.9266-45.283 13.9666-58.687 19.0406-63.15 12.656-11.1375 83.864-48.6745 118.722-62.5848 19.17-7.6488 14.578-9.3098-6.093-2.2009zm169.376 176.8237c-.829 1.332-.344 2.421 1.075 2.421 1.418 0 2.58-1.089 2.58-2.421s-.482-2.421-1.074-2.421-1.753 1.089-2.581 2.421zm-26.808 16.949c-.828 1.331-.409 2.421.931 2.421s3.115-1.09 3.943-2.421c.829-1.332.41-2.422-.931-2.422-1.34 0-3.114 1.09-3.943 2.422zm28.026 1.21c0 1.998.98 3.632 2.177 3.632 1.196 0 2.807-1.634 3.58-3.632.853-2.213.002-3.632-2.177-3.632-1.969 0-3.58 1.635-3.58 3.632zm-19.496 18.017c0 1.254 1.084 2.944 2.41 3.758 1.379.847 1.789-.124.958-2.278-1.621-4.194-3.368-4.962-3.368-1.48zm-7.348 6.801c-.032 3.628-.383 3.715-2.435.606-1.686-2.555-1.932-1.119-.831 4.842 1.914 10.351 1.741 10.129 6.422 8.344 4.618-1.76 7.687-8.525 3.495-7.709-1.657.322-2.873-1.821-2.766-4.872.107-2.995-.714-5.448-1.828-5.448-1.111 0-2.037 1.906-2.057 4.237zm-210.148 2.315c-2.339 2.584-4.937 9.671-5.776 15.748l-1.525 11.051 11.274 6.564c23.863 13.896 49.823 20.685 55.92 14.627 4.994-4.961 11.986-29.455 10.097-35.37-2.759-8.637-19.847-14.954-43.804-16.189-19.472-1.005-22.411-.603-26.186 3.569zm140.763.879c-27.69 4.596-31.363 7.392-27.595 21.002 1.384 5.003 4.611 13.184 7.167 18.177 4.138 8.08 5.669 9.08 13.877 9.08 10.952 0 35.856-8.037 43.908-14.17 7.823-5.961 8.981-27.973 1.745-33.237-5.135-3.736-19.816-4.055-39.102-.852zm-183.986 20.47c2.575 3.082 2.424 3.438-.922 2.162-2.198-.84-3.999-2.499-3.999-3.688 0-3.114 1.411-2.675 4.921 1.526zm123.135 29.605c-3.941 6.324-7.28 12.045-7.419 12.711s-2.176 7.584-4.53 15.373c-5.355 17.721-4.57 23.888 3.309 26.053 15.912 4.373 44.496.644 47.118-6.143 2.81-7.276-10.642-44.193-20.103-55.169-5.988-6.949-10.73-5.096-18.375 7.175zm-121.963 15.133c-.829 1.331-.344 2.421 1.074 2.421 1.419 0 2.581-1.09 2.581-2.421 0-1.332-.482-2.422-1.074-2.422-.593 0-1.753 1.09-2.581 2.422zm252.372 16.91c6.531-1.862 6.946-1.637 4.694 2.54-1.574 2.925-3.921 4.029-6.485 3.05-2.695-1.026-3.439-.598-2.257 1.301 1.002 1.612.388 2.83-1.428 2.83-2.081-.002-3.292-3.581-3.485-10.29-.163-5.659.176-7.385.751-3.838.953 5.874 1.684 6.266 8.21 4.407zm20.201-3.489c-.795 2.055-1.967 3.218-2.605 2.583-.639-.634-.439-2.317.446-3.736 2.403-3.864 3.806-3.114 2.159 1.153zm-198.275 112.32c1.424 7.729.914 10.497-2.498 13.564-3.982 3.581-4.26 3.431-3.923-2.118.197-3.286 1.184-5.47 2.188-4.852 1.004.617 1.828-.034 1.828-1.444 0-1.409-.999-2.564-2.223-2.564-1.221 0-1.852-1.905-1.403-4.237.448-2.332.899-5.78 1.001-7.668.329-6.015 3.183-.727 5.03 9.319zm71.421 9.879c.687 2.61-.765 6.3-3.414 8.683-4.453 4.002-4.611 3.801-4.611-5.84 0-7.567.826-9.668 3.414-8.681 1.879.715 3.953 3.344 4.611 5.838zm-39.707 1.182c0 3.329-1.097 6.053-2.437 6.053-2.722 0-3.341-7.981-.812-10.491 2.686-2.671 3.249-1.901 3.249 4.438z" fill="#ffca16"/><path d="m230.511 38.6173c-27.488 9.4502-99.498 47.8057-112.536 59.9411-7.738 7.2006-9.89 12.5086-15.473 38.1906-2.315 10.654-5.7345 25.363-7.5964 32.688-7.8986 31.084-6.3973 55.827 5.5104 90.797 6.616 19.431 7.048 29.927 2.149 52.058-1.915 8.656-3.5238 16.542-3.5701 17.523-.0463.983 14.9931 16.416 33.4241 34.3l33.51 32.512v32.518c0 35.203.78 37.675 14.013 44.474 6.617 3.4 7.543 3.257 14.871-2.295l7.813-5.92 7.241 5.755c8.997 7.153 9.853 7.145 19.472-.145l7.818-5.925 6.882 7.136c8.681 9.002 15.412 9.031 24.025.101l6.782-7.034 8.635 5.824c10.662 7.188 10.825 7.186 19.664-.201l7.204-6.024 6.471 5.055c7.603 5.942 14.766 4.92 23.802-3.399 6.083-5.603 6.142-6.012 4.987-35.792l-1.168-30.123 33.719-33.057 33.72-33.061-2.966-26.498c-2.579-23.036-2.467-27.891.862-37.142 6.264-17.405 13.185-53.203 13.224-68.421.044-15.77-15.558-86.883-20.895-95.255-5.338-8.3684-12.8-14.47-30.081-24.5885-31.099-18.2129-62.718-32.9149-94.982-44.169-20.506-7.1524-20.693-5.1718-.227 2.4237 23.886 8.8668 57.683 25.7842 93.159 46.6363 33.147 19.4815 30.378 14.5735 43.475 77.0765 6.456 30.799 7.014 36.501 4.572 46.617-3.136 12.99-5.749 15.695-10.989 11.375-1.983-1.637-3.892-2.547-4.238-2.027-.346.523-2.239 3.037-4.206 5.586-3.371 4.366-3.256 4.465 1.967 1.7 4.503-2.385 6.212-2.266 9.139.642 3.17 3.152 3.143 4.024-.232 7.38-2.108 2.092-4.85 3.804-6.093 3.804-1.245 0-2.227 2.452-2.183 5.447l.083 5.448 4.791-5.716c5.41-6.453 5.851-5.84 2.361 3.283-1.338 3.496-3.453 5.731-4.698 4.966-3.629-2.228-5.757 8.237-2.474 12.167 2.452 2.937 2.279 3.303-.984 2.058-2.754-1.051-4.665.312-6.249 4.458-1.258 3.283-4.258 6.721-6.668 7.639-3.482 1.329-3.707 2.089-1.084 3.697 2.534 1.557 1.796 3.005-3.19 6.252-3.571 2.324-5.966 4.745-5.325 5.385 1.652 1.641 18.482-9.01 18.482-11.7 0-1.223.865-2.223 1.925-2.223 1.058 0 3.836 11.012 6.174 24.472 4.652 26.787 3.246 33.532-5.969 28.634-2.566-1.365-5.515-1.963-6.548-1.329-1.036.637-2.052-1.109-2.262-3.879-.407-5.349-5.505-12.298-5.505-7.504 0 1.444-2.196 3.194-4.877 3.891-3.104.807-4.289.32-3.256-1.338 1.041-1.674.098-2.027-2.634-.986-2.34.894-4.777 1.622-5.418 1.622-.638 0-.492 1.078.327 2.395.824 1.324-.056 1.804-1.974 1.073-2.342-.894-4.752 1.883-7.455 8.593-5.247 13.029-13.984 42.776-15.49 52.73-1.109 7.339-5.527 13.727-5.527 7.991 0-1.41-1.645-2.565-3.656-2.565-2.895 0-3.694 3.649-3.848 17.555-.397 36.098-1.689 55.5-3.836 57.633-1.328 1.32-4.718-.104-8.464-3.557-5.564-5.125-6.409-8.203-7.701-28.004-1.406-21.552-4.055-29.278-13.153-38.351-3.59-3.578-4.291 4.872-4.036 48.598.076 12.985-.314 23.607-.862 23.607-.551 0-5.225-2.416-10.389-5.368l-9.39-5.37-.142-23.002c-.129-21.022-.621-23.37-5.717-27.264-9.97-7.624-9.624-8.976-10.355 40.423-.178 11.986-.546 22.823-.817 24.082-.273 1.262-4.26-1.334-8.863-5.767-4.826-4.647-9.868-7.489-11.908-6.709-3.012 1.147-3.075.387-.424-5.129 1.782-3.707 2.864-13.208 2.53-22.215-.792-21.331-.968-22.297-3.763-20.581-1.34.823-2.437-.683-2.437-3.346 0-7.627-4.336-8.31-5.8-.913-.729 3.676-1.64 18.932-2.025 33.905-.775 29.949-1.641 31.254-13.921 20.986l-7.499-6.269-.068-25.813c-.066-25.201-.234-25.976-7.08-32.646l-7.013-6.833-.334 36.999c-.186 20.351-.856 37.518-1.489 38.147-.637.632-4.153-1.077-7.816-3.799-6.619-4.912-6.665-5.157-7.075-36.37-.341-26.195-1.486-35.016-6.882-53.004-3.561-11.866-7.014-23.481-7.674-25.813-.661-2.332-2.637-4.237-4.394-4.237-1.758 0-4.548-1.622-6.205-3.605s-4.107-2.933-5.445-2.112c-1.338.823-3.229.218-4.199-1.344-.972-1.561-1.92 1.247-2.11 6.24-.188 4.993 1.004 9.927 2.649 10.966s1.893 1.893.553 1.903c-1.34.007-8.954-5.838-16.916-12.993l-14.481-13.007 3.064-19.871c4.233-27.472 4.316-27.624 12.139-22.249 11.676 8.024 13.487 8.75 11.956 4.789-1.067-2.767-.029-3.387 4.299-2.566 4.959.941 5.513.343 4.219-4.572-.819-3.111-2.428-6.765-3.576-8.121-1.15-1.356-3.662-4.644-5.583-7.307-3.219-4.46-3.502-4.494-3.573-.446-.043 2.417 1.199 6.775 2.762 9.685 1.647 3.068-.909 1.458-6.093-3.835-8.844-9.034-12.782-17.646-5.218-11.409 2.042 1.685 4.494 2.288 5.447 1.341.953-.946-.975-3.75-4.284-6.229-3.31-2.48-6.634-3.519-7.387-2.306-1.226 1.969-10.972-11.67-10.465-14.646.112-.666-.663-3.477-1.723-6.249-1.06-2.77-3.748-12.247-5.9706-21.06-4.0334-15.976-4.0236-16.129 3.541-50.634 9.9266-45.283 13.9666-58.687 19.0406-63.15 12.656-11.1375 83.864-48.6745 118.722-62.5848 19.17-7.6488 14.578-9.3098-6.093-2.2009zm169.376 176.8237c-.829 1.332-.344 2.421 1.075 2.421 1.418 0 2.58-1.089 2.58-2.421s-.482-2.421-1.074-2.421-1.753 1.089-2.581 2.421zm-26.808 16.949c-.828 1.331-.409 2.421.931 2.421s3.115-1.09 3.943-2.421c.829-1.332.41-2.422-.931-2.422-1.34 0-3.114 1.09-3.943 2.422zm28.026 1.21c0 1.998.98 3.632 2.177 3.632 1.196 0 2.807-1.634 3.58-3.632.853-2.213.002-3.632-2.177-3.632-1.969 0-3.58 1.635-3.58 3.632zm-19.496 18.017c0 1.254 1.084 2.944 2.41 3.758 1.379.847 1.789-.124.958-2.278-1.621-4.194-3.368-4.962-3.368-1.48zm-7.348 6.801c-.032 3.628-.383 3.715-2.435.606-1.686-2.555-1.932-1.119-.831 4.842 1.914 10.351 1.741 10.129 6.422 8.344 4.618-1.76 7.687-8.525 3.495-7.709-1.657.322-2.873-1.821-2.766-4.872.107-2.995-.714-5.448-1.828-5.448-1.111 0-2.037 1.906-2.057 4.237zm-210.148 2.315c-2.339 2.584-4.937 9.671-5.776 15.748l-1.525 11.051 11.274 6.564c23.863 13.896 49.823 20.685 55.92 14.627 4.994-4.961 11.986-29.455 10.097-35.37-2.759-8.637-19.847-14.954-43.804-16.189-19.472-1.005-22.411-.603-26.186 3.569zm140.763.879c-27.69 4.596-31.363 7.392-27.595 21.002 1.384 5.003 4.611 13.184 7.167 18.177 4.138 8.08 5.669 9.08 13.877 9.08 10.952 0 35.856-8.037 43.908-14.17 7.823-5.961 8.981-27.973 1.745-33.237-5.135-3.736-19.816-4.055-39.102-.852zm-183.986 20.47c2.575 3.082 2.424 3.438-.922 2.162-2.198-.84-3.999-2.499-3.999-3.688 0-3.114 1.411-2.675 4.921 1.526zm123.135 29.605c-3.941 6.324-7.28 12.045-7.419 12.711s-2.176 7.584-4.53 15.373c-5.355 17.721-4.57 23.888 3.309 26.053 15.912 4.373 44.496.644 47.118-6.143 2.81-7.276-10.642-44.193-20.103-55.169-5.988-6.949-10.73-5.096-18.375 7.175zm-121.963 15.133c-.829 1.331-.344 2.421 1.074 2.421 1.419 0 2.581-1.09 2.581-2.421 0-1.332-.482-2.422-1.074-2.422-.593 0-1.753 1.09-2.581 2.422zm252.372 16.91c6.531-1.862 6.946-1.637 4.694 2.54-1.574 2.925-3.921 4.029-6.485 3.05-2.695-1.026-3.439-.598-2.257 1.301 1.002 1.612.388 2.83-1.428 2.83-2.081-.002-3.292-3.581-3.485-10.29-.163-5.659.176-7.385.751-3.838.953 5.874 1.684 6.266 8.21 4.407zm20.201-3.489c-.795 2.055-1.967 3.218-2.605 2.583-.639-.634-.439-2.317.446-3.736 2.403-3.864 3.806-3.114 2.159 1.153zm-198.275 112.32c1.424 7.729.914 10.497-2.498 13.564-3.982 3.581-4.26 3.431-3.923-2.118.197-3.286 1.184-5.47 2.188-4.852 1.004.617 1.828-.034 1.828-1.444 0-1.409-.999-2.564-2.223-2.564-1.221 0-1.852-1.905-1.403-4.237.448-2.332.899-5.78 1.001-7.668.329-6.015 3.183-.727 5.03 9.319zm71.421 9.879c.687 2.61-.765 6.3-3.414 8.683-4.453 4.002-4.611 3.801-4.611-5.84 0-7.567.826-9.668 3.414-8.681 1.879.715 3.953 3.344 4.611 5.838zm-39.707 1.182c0 3.329-1.097 6.053-2.437 6.053-2.722 0-3.341-7.981-.812-10.491 2.686-2.671 3.249-1.901 3.249 4.438z" mask="url(#a)" stroke="#ffca16" stroke-width="4"/></g></svg>